<svg xmlns="http://www.w3.org/2000/svg" width="179.992" height="42.32" viewBox="0 0 179.992 42.32">
  <g id="Group_4" data-name="Group 4" transform="translate(0.5 0.5)">
    <g id="Group_2" data-name="Group 2" transform="translate(0 0)">
      <path id="Union_1" data-name="Union 1" d="M13.211,41.32c0-8.6-.013-17.5.006-26.078A5.9,5.9,0,0,1,18.1,9.548a16.861,16.861,0,0,1,3.048-.112h7.782a.86.86,0,0,0,.186-.013c1.593-.146,2.552-2.182,2.288-3.577a3.254,3.254,0,0,0-3.3-2.579H19.321a13.82,13.82,0,0,0-2.949.337A11.893,11.893,0,0,0,7.1,14.739c0,6.665-.006,17.947-.006,26.581H5.839A5.839,5.839,0,0,1,0,35.482V5.839A5.73,5.73,0,0,1,.172,4.444,5.839,5.839,0,0,1,5.839,0H35.448a5.831,5.831,0,0,1,5.806,5.244c0,.006.006.019,0,.032a4.034,4.034,0,0,1,.032.562V31.283c0,.522-.172.642-.681.642-5.22,0-8.053-.02-12.491-.02a5.959,5.959,0,0,1-6.149-6.182c0-2.778.033-7.036,0-10.553A3.07,3.07,0,0,0,17.9,12.147a2.978,2.978,0,0,0-2.07,2.778V26.767c0,6.147,5.634,11.32,11.783,11.32H40.546A7.882,7.882,0,0,1,37.5,40.95a5.863,5.863,0,0,1-2.051.37Z" fill="#fff" stroke="rgba(0,0,0,0)" stroke-miterlimit="10" stroke-width="1"/>
    </g>
    <g id="Group_3" data-name="Group 3" transform="translate(49.045 6.761)">
      <path id="Path_3" data-name="Path 3" d="M3130.312,319.334v-9.385a1.206,1.206,0,0,0-1.235-1.2h-.746a7.518,7.518,0,0,0-13.055,5.1,7.547,7.547,0,0,0,7.534,7.566,7.433,7.433,0,0,0,5.066-1.98v1.98a2.48,2.48,0,0,0,2.437-2.078Zm-2.437-5.879v.812a5.114,5.114,0,1,1,0-.812Z" transform="translate(-3031.136 -299.946)" fill="#fff" fill-rule="evenodd"/>
      <path id="Path_4" data-name="Path 4" d="M2230.215,327.743v-5.877l-5.943-14.516a2.55,2.55,0,0,1,1.982-1.071l4.9,11.983c.034.065.1.26.293.26s.227-.195.26-.26l4.708-11.983a2.6,2.6,0,0,1,2.013,1.1l-5.749,14.484-.031,5.877V325.7a2.449,2.449,0,0,1-2.436,2.045Z" transform="translate(-2178.225 -299.946)" fill="#fff"/>
      <path id="Path_5" data-name="Path 5" d="M3001.343,179.617V158.152h1.2a1.233,1.233,0,0,1,1.234,1.234V177.54a2.479,2.479,0,0,1-2.436,2.078Z" transform="translate(-2922.074 -158.152)" fill="#fff"/>
      <path id="Path_6" data-name="Path 6" d="M1147.2,319.334V307.513a1.233,1.233,0,0,1,1.234-1.234h7.015a1.249,1.249,0,0,1,1.2,1.234v1.3l-5.943-.065a1.2,1.2,0,0,0-1.072,1.2v11.463a2.478,2.478,0,0,1-2.436-2.078Z" transform="translate(-1147.202 -299.946)" fill="#fff"/>
      <path id="Path_7" data-name="Path 7" d="M1411.391,319.334v-9.385a1.206,1.206,0,0,0-1.235-1.2h-.747a7.517,7.517,0,0,0-13.054,5.1,7.546,7.546,0,0,0,7.534,7.566,7.43,7.43,0,0,0,5.065-1.98v1.98a2.479,2.479,0,0,0,2.436-2.078Zm-2.436-5.879v.812a5.114,5.114,0,1,1,0-.812Z" transform="translate(-1385.704 -299.946)" fill="#fff" fill-rule="evenodd"/>
      <path id="Path_8" data-name="Path 8" d="M1817.595,166.465a7.566,7.566,0,1,0,0,11.171v1.98h1.2a1.234,1.234,0,0,0,1.235-1.234v-19a1.234,1.234,0,0,0-1.235-1.234h-1.2Zm0,5.2v.812a5.114,5.114,0,1,1,0-.812Z" transform="translate(-1776.873 -158.152)" fill="#fff" fill-rule="evenodd"/>
      <path id="Path_9" data-name="Path 9" d="M2607.708,319.334v-9.385a1.2,1.2,0,0,0-1.233-1.2h-.748a7.518,7.518,0,0,0-13.054,5.1,7.54,7.54,0,0,0,7.5,7.566,7.433,7.433,0,0,0,5.065-1.98v1.98a2.511,2.511,0,0,0,2.468-2.078Zm-2.468-5.879v.812a5.114,5.114,0,1,1,0-.812Z" transform="translate(-2530.876 -299.946)" fill="#fff" fill-rule="evenodd"/>
      <path id="Path_10" data-name="Path 10" d="M3526.685,308.747a7.518,7.518,0,0,1,13.054,5.1,7.517,7.517,0,1,1-15.034,0,7.454,7.454,0,0,1,1.98-5.1Zm5.521,0a5.114,5.114,0,1,0,5.1,5.1,5.079,5.079,0,0,0-5.1-5.1Z" transform="translate(-3423.061 -299.946)" fill="#fff" fill-rule="evenodd"/>
      <path id="Path_11" data-name="Path 11" d="M3919.344,310.793c-.163-1.754-2.859-2.761-4.255-2.761a4.578,4.578,0,0,0-2.306.552,1.927,1.927,0,0,0-.91,1.754,1.467,1.467,0,0,0,.716,1.3,6.316,6.316,0,0,0,1.753.715c.715.195,1.462.389,2.305.552a11.921,11.921,0,0,1,2.3.715,5.069,5.069,0,0,1,1.755,1.266,2.974,2.974,0,0,1,.714,2.111,3.679,3.679,0,0,1-.422,1.818,4.421,4.421,0,0,1-1.3,1.4,5.54,5.54,0,0,1-1.981.877,9.492,9.492,0,0,1-2.663.325,9.984,9.984,0,0,1-2.5-.292,5.815,5.815,0,0,1-1.98-.877,4.059,4.059,0,0,1-1.267-1.429,2.815,2.815,0,0,1-.259-.552,2.462,2.462,0,0,1,2.208-1.4,2.374,2.374,0,0,0,.324,1.2,2.54,2.54,0,0,0,.779.876,3.3,3.3,0,0,0,1.137.52,4.553,4.553,0,0,0,1.331.195,6.833,6.833,0,0,0,2.955-.553,1.944,1.944,0,0,0,1.072-1.818,1.648,1.648,0,0,0-.713-1.493,4.876,4.876,0,0,0-1.755-.812,20.207,20.207,0,0,0-2.305-.519,11.392,11.392,0,0,1-2.306-.682,5.038,5.038,0,0,1-1.786-1.234,3.263,3.263,0,0,1-.683-2.208,3.448,3.448,0,0,1,.391-1.656,4.3,4.3,0,0,1,1.169-1.267,5.488,5.488,0,0,1,1.753-.844,8.213,8.213,0,0,1,2.273-.292,7.727,7.727,0,0,1,4.61,1.169,4.539,4.539,0,0,1,1.786,2.436,2.533,2.533,0,0,1-1.947.909Z" transform="translate(-3790.975 -299.946)" fill="#fff"/>
      <path id="Path_12" data-name="Path 12" d="M3527.14,166.465a7.535,7.535,0,0,1,12.6,5.585,7.546,7.546,0,0,1-7.533,7.566,7.431,7.431,0,0,1-5.065-1.98v1.98a2.478,2.478,0,0,1-2.436-2.078V159.386a1.233,1.233,0,0,1,1.234-1.234h1.2Zm0,5.2v.812a5.114,5.114,0,1,0,0-.812Z" transform="translate(-3423.061 -158.152)" fill="#fff" fill-rule="evenodd"/>
    </g>
  </g>
</svg>
