<svg id="brand_grey" xmlns="http://www.w3.org/2000/svg" width="23.382" height="23.401" viewBox="0 0 23.382 23.401">
  <path id="Union_1" data-name="Union 1" d="M7.482,23.4c0-4.868-.007-9.909,0-14.769a3.343,3.343,0,0,1,2.764-3.224,9.549,9.549,0,0,1,1.726-.064h4.408a.487.487,0,0,0,.105-.007,1.758,1.758,0,0,0,1.3-2.026A1.843,1.843,0,0,0,15.915,1.85H10.942a7.827,7.827,0,0,0-1.67.191A6.735,6.735,0,0,0,4.018,8.347c0,3.775,0,10.164,0,15.054H3.307A3.307,3.307,0,0,1,0,20.1V3.307a3.245,3.245,0,0,1,.1-.79A3.307,3.307,0,0,1,3.307,0H20.075a3.3,3.3,0,0,1,3.288,2.97s0,.011,0,.018a2.285,2.285,0,0,1,.018.318v14.41c0,.3-.1.363-.385.363-2.956,0-4.561-.012-7.074-.012a3.375,3.375,0,0,1-3.483-3.5c0-1.573.019-3.985,0-5.977a1.739,1.739,0,0,0-2.3-1.712A1.686,1.686,0,0,0,8.965,8.452v6.707a6.721,6.721,0,0,0,6.673,6.411h7.325a4.464,4.464,0,0,1-1.726,1.621,3.321,3.321,0,0,1-1.161.21Z" fill="#acacac"/>
</svg>
