<svg xmlns="http://www.w3.org/2000/svg" width="29.795" height="140.857" viewBox="0 0 29.795 140.857"><defs><style>.a{fill:#fff;}</style></defs><g transform="translate(-319.553 -284.822)"><path class="a" d="M321.743,412.538a2.08,2.08,0,0,1-.4-.041l-.03.066a.534.534,0,0,0,.413.266c0-.1-.007-.2,0-.291Z"/><path class="a" d="M347.384,412.926a2.284,2.284,0,0,0-.285-.315,4.517,4.517,0,0,1-.048.671A2.318,2.318,0,0,0,347.384,412.926Z"/><path class="a" d="M340.76,420.584q-.365.265-.729.52a2.035,2.035,0,0,1,.579.2c.2-.141.4-.285.6-.43a1.507,1.507,0,0,1-.139-.07A2.674,2.674,0,0,1,340.76,420.584Z"/><path class="a" d="M338.279,422.291a1.633,1.633,0,0,0,.375.343c.533-.349,1.088-.724,1.649-1.117a2.238,2.238,0,0,0-.719-.1C339.14,421.721,338.7,422.014,338.279,422.291Z"/><path class="a" d="M337.981,422.485q-.266.173-.521.334a2.171,2.171,0,0,1,.127.5q.361-.228.745-.475A2.249,2.249,0,0,1,337.981,422.485Z"/><path class="a" d="M335.539,423.99a2.067,2.067,0,0,0-.133.641c.486-.277,1.119-.651,1.842-1.1a1.794,1.794,0,0,0-.094-.52C336.546,423.392,336,423.724,335.539,423.99Z"/><path class="a" d="M342.079,419.593c-.348.271-.7.539-1.06.8a1.7,1.7,0,0,0,.455.279q.334-.248.666-.5A1.978,1.978,0,0,0,342.079,419.593Z"/><path class="a" d="M344.945,417.246c-.053-.006-.1-.02-.151-.03a27.128,27.128,0,0,1-2.435,2.155,2.054,2.054,0,0,1,.091.559q.39-.306.766-.617a2.072,2.072,0,0,1,.839-1.154,2.008,2.008,0,0,1,.791-.3c.138-.134.272-.269.4-.4a1.106,1.106,0,0,0-.056-.181Z"/><path class="a" d="M335.135,424.223c-.287.163-.522.291-.684.374l-.007,0a1.832,1.832,0,0,1-.071.514l.077.036c.1-.043.33-.162.656-.343a1.759,1.759,0,0,1-.006-.282A2.554,2.554,0,0,1,335.135,424.223Z"/><path class="a" d="M321.728,412.947l-.005-.033a1.081,1.081,0,0,1-.251-.079,1.17,1.17,0,0,1-.2-.182c0,.1.034.19.042.28s-.065.165-.045.3A.539.539,0,0,1,321.728,412.947Z"/><path class="a" d="M346.952,413.793a5.939,5.939,0,0,1-.94,2.008c-.123.171-.261.346-.406.521a2.172,2.172,0,0,1-.2.715c-.018.041-.037.081-.054.122a.1.1,0,0,0,0,.033.746.746,0,0,0,.068.087c.281-.3.538-.6.766-.888l-.07.029a.738.738,0,0,1-.025-.518.9.9,0,0,0,.056.459l.082-.027c.063-.082.128-.164.186-.245a6.67,6.67,0,0,0,.412-.652v-.061h0l-.1-.122-.019.006-.08.043-.007-.02.087-.023.016-.009,0,0c0-.053.006-.1.01-.158v-.188h.008c0,.063-.005.125-.008.188l.109.123c-.053.03-.049.091-.023.157h0l0,.056a6.385,6.385,0,0,0,.548-1.31l-.117.025-.008-.021.139-.051a5.57,5.57,0,0,0,.164-.8A2.1,2.1,0,0,1,346.952,413.793Z"/><path class="a" d="M327.092,419.83q-.413-.313-.814-.631a2.584,2.584,0,0,1,.091.278,1.944,1.944,0,0,1,.064.467q.36.277.727.551A1.907,1.907,0,0,1,327.092,419.83Z"/><path class="a" d="M327.4,420.059a1.6,1.6,0,0,0,.146.717l.032.024a1.867,1.867,0,0,0,.593-.178Q327.782,420.345,327.4,420.059Z"/><path class="a" d="M324.455,418.19c-.014.031-.027.055-.037.08.515.467,1.075.934,1.658,1.4A1.782,1.782,0,0,0,324.455,418.19Z"/><path class="a" d="M323.612,417.3l.107.148a.5.5,0,0,0,.384-.154c-.339-.335-.648-.666-.918-.989-.014-.01-.03-.016-.044-.028l.029.01c-.137-.165-.267-.328-.382-.488a5.773,5.773,0,0,1-.726-1.359c0,.039,0,.078,0,.119a.8.8,0,0,1-.036-.207,5.145,5.145,0,0,1-.29-1.331.533.533,0,0,0-.422.262l.079.182a1.985,1.985,0,0,1,.181,1.1,6.384,6.384,0,0,0,.811,1.522c.127.176.271.356.423.537.016.007.032.012.048.02A2,2,0,0,1,323.612,417.3Z"/><path class="a" d="M334.11,424.414c-.426-.234-1.053-.6-1.8-1.056a1.671,1.671,0,0,0,.035.592c.776.469,1.4.824,1.773,1.024A1.815,1.815,0,0,0,334.11,424.414Z"/><path class="a" d="M329.059,421.248q-.306-.211-.614-.429a1.925,1.925,0,0,1-.568.2q.355.255.71.5a1.76,1.76,0,0,1,.315-.2C328.954,421.29,329.007,421.27,329.059,421.248Z"/><path class="a" d="M331.975,423.154c-.209-.13-.428-.268-.652-.41a1.88,1.88,0,0,1-.428.309l.437.275.1-.039a.758.758,0,0,1,.043.13c.16.1.315.2.467.289-.005-.054-.012-.107-.012-.163A1.7,1.7,0,0,1,331.975,423.154Z"/><path class="a" d="M329.386,421.472a1.8,1.8,0,0,0-.543.223c.577.4,1.145.773,1.685,1.122a1.61,1.61,0,0,0,.479-.274C330.489,422.211,329.943,421.852,329.386,421.472Z"/><path class="a" d="M346.813,416.376a6.388,6.388,0,0,0,1.265-4.042,2.193,2.193,0,0,1-.413.144c-.024.006-.048.008-.072.013,0,.046,0,.092,0,.138a5,5,0,0,1-.04.644,5.57,5.57,0,0,1-.164.8l-.014.047a6.385,6.385,0,0,1-.548,1.31l0,.005a6.67,6.67,0,0,1-.412.652c-.058.081-.123.163-.186.245l-.043.057c-.228.292-.485.589-.766.888l-.05.052-.057.059-.064.067c-.129.134-.263.269-.4.4-.5.486-1.05.973-1.63,1.453q-.377.311-.766.617l-.31.241q-.332.255-.666.5c-.089.067-.179.133-.268.2-.2.145-.4.289-.6.43-.1.073-.2.144-.307.216-.561.393-1.116.768-1.649,1.117l-.322.21q-.384.248-.745.475l-.339.212c-.723.449-1.356.823-1.842,1.1l-.3.169c-.326.181-.555.3-.656.343l-.077-.036c-.064-.031-.152-.076-.258-.133-.375-.2-1-.555-1.773-1.024-.129-.077-.262-.158-.4-.242-.152-.093-.307-.189-.467-.289l-.056-.034-.047-.03-.042-.027-.437-.275-.367-.236c-.54-.349-1.108-.726-1.685-1.122l-.256-.177q-.354-.246-.71-.5l-.3-.217-.032-.024c-.129-.093-.257-.186-.384-.281q-.367-.273-.727-.551l-.357-.279c-.583-.461-1.143-.928-1.658-1.4l-.272-.251q-.2-.189-.392-.377c-.348-.343-.664-.683-.943-1.016-.152-.181-.3-.361-.423-.537a6.384,6.384,0,0,1-.811-1.522,5.394,5.394,0,0,1-.342-2.093c-.029-.007-.06-.011-.089-.019a2.171,2.171,0,0,1-.393-.155,6.247,6.247,0,0,0,1.235,4.077c2.773,3.843,11.367,8.836,12.269,9.22l.194.082.193-.082C335.57,425.2,343.974,420.329,346.813,416.376Z"/><path class="a" d="M334.272,370.065a.639.639,0,0,1,.248.05l-.107-2.41a.507.507,0,0,1-.141.023.486.486,0,0,1-.138-.022l-.109,2.409A.638.638,0,0,1,334.272,370.065Z"/><path class="a" d="M334.9,370.747c0-.015.005-.03.005-.045a.638.638,0,0,0-.39-.587l.027.6C334.669,370.717,334.788,370.731,334.9,370.747Z"/><path class="a" d="M334,370.71l.027-.6a.637.637,0,0,0-.39.587.342.342,0,0,0,.005.045C333.757,370.731,333.875,370.717,334,370.71Z"/><path class="a" d="M334.272,370.7c.093,0,.185,0,.275.008l-.027-.6a.638.638,0,0,0-.495,0l-.027.6C334.088,370.7,334.18,370.7,334.272,370.7Z"/><path class="a" d="M334.772,367.229a.5.5,0,0,0-.4-.49l.044.966A.5.5,0,0,0,334.772,367.229Z"/><path class="a" d="M333.773,367.229a.5.5,0,0,0,.361.477l.044-.967A.5.5,0,0,0,333.773,367.229Z"/><path class="a" d="M334.413,367.7l-.044-.966a.5.5,0,0,0-.1-.01.482.482,0,0,0-.094.01l-.044.967a.486.486,0,0,0,.138.022A.507.507,0,0,0,334.413,367.7Z"/><path class="a" d="M334.228,365.631h.092l.013.293a2.687,2.687,0,1,0-.118,0Zm-2.049-2.389a2.093,2.093,0,1,1,2.093,2.093A2.1,2.1,0,0,1,332.179,363.242Z"/><path class="a" d="M335.247,373.684c-.426-.387-.764-.68-.975-.846-.213.167-.546.462-.962.848a4.478,4.478,0,0,0,1.937,0Z"/><path class="a" d="M334.078,371.792l.194-.083.193.083a12.448,12.448,0,0,1,1.8,1.481,1.279,1.279,0,0,0,.682-1.027c0-.727-.872-1.335-2.045-1.5a.634.634,0,0,1-1.265,0c-1.173.164-2.045.772-2.045,1.5a1.29,1.29,0,0,0,.7,1.039A11.385,11.385,0,0,1,334.078,371.792Z"/><path class="a" d="M334.272,371.339a.634.634,0,0,0,.633-.592c-.117-.016-.236-.03-.358-.037l.013.283h-.575l.013-.283c-.123.007-.241.021-.358.037A.634.634,0,0,0,334.272,371.339Z"/><path class="a" d="M334,370.71l-.013.283h.575l-.013-.283c-.09-.005-.182-.008-.275-.008S334.088,370.7,334,370.71Z"/><path class="a" d="M330.115,376.818a1.943,1.943,0,0,0-.614-.084c-.384.392-.777.8-1.172,1.209a1.813,1.813,0,0,0,.458.242C329.237,377.716,329.682,377.258,330.115,376.818Z"/><path class="a" d="M345.5,384.3a1.745,1.745,0,0,0,.059-.712q-.211-.258-.444-.531a1.647,1.647,0,0,0-.488.186C344.945,383.608,345.239,383.964,345.5,384.3Z"/><path class="a" d="M345.763,384.633c.1.127.189.251.275.369a5.925,5.925,0,0,1,.593,1.036,2.272,2.272,0,0,1,.612.182,6.372,6.372,0,0,0-.806-1.506c-.148-.2-.316-.426-.5-.656a1.5,1.5,0,0,1-.043.2A3.166,3.166,0,0,1,345.763,384.633Z"/><path class="a" d="M344.378,382.948a1.923,1.923,0,0,1,.471-.209c-.671-.778-1.44-1.624-2.253-2.489a2.385,2.385,0,0,1-.17.541C343.124,381.537,343.787,382.266,344.378,382.948Z"/><path class="a" d="M321.45,387.168a1.775,1.775,0,0,0,.319.365,5.279,5.279,0,0,1,.2-.87A1.975,1.975,0,0,0,321.45,387.168Z"/><path class="a" d="M321.171,388.484c.023-.006.046-.008.069-.014a4.828,4.828,0,0,1,.031-.928,5.683,5.683,0,0,1,.21-.968,6.53,6.53,0,0,1,.931-1.86c.257-.358.561-.753.9-1.174.226-.281.468-.574.724-.876q.357-.423.746-.867.449-.512.928-1.044.434-.481.886-.97.173-.187.348-.375c.129-.138.258-.277.388-.415l.223-.237c.188-.2.376-.4.565-.6l.208-.218c.395-.412.788-.817,1.172-1.209l.349-.355c1.107-1.121,2.128-2.12,2.915-2.856a2.88,2.88,0,0,1-.471-.238,108.577,108.577,0,0,0-10.283,11.141,6.415,6.415,0,0,0-1.25,4.217A2.113,2.113,0,0,1,321.171,388.484Z"/><path class="a" d="M340.02,378.3a2.106,2.106,0,0,0,.549-.154c-.453-.461-.9-.914-1.346-1.352a1.718,1.718,0,0,0-.5.207C339.146,377.417,339.581,377.852,340.02,378.3Z"/><path class="a" d="M342.157,380.505a2.207,2.207,0,0,0,.151-.56q-.386-.406-.777-.814a1.82,1.82,0,0,0-.42.28C341.464,379.776,341.813,380.142,342.157,380.505Z"/><path class="a" d="M335.8,374.19c.382.354.81.758,1.272,1.2A2.087,2.087,0,0,0,335.8,374.19Z"/><path class="a" d="M331.986,374.952a2.109,2.109,0,0,1,.873-.842c.161-.153.31-.292.451-.424a3.736,3.736,0,0,1-.545-.163c-.787.736-1.808,1.735-2.915,2.856a2.239,2.239,0,0,1,.554.146C330.965,375.958,331.5,375.428,331.986,374.952Z"/><path class="a" d="M321.37,388.357l.191.063c.061-.005.121-.012.182-.012h-.014a4.171,4.171,0,0,1,0-.433,2.206,2.206,0,0,1-.457-.433,4.828,4.828,0,0,0-.031.928c.034-.008.068-.014.1-.02A.889.889,0,0,1,321.37,388.357Z"/><path class="a" d="M323.851,383.008a1.9,1.9,0,0,0-.186.882q.3-.378.646-.785A2.22,2.22,0,0,0,323.851,383.008Z"/><path class="a" d="M335.445,373.864a1.943,1.943,0,0,1,1.109.346c-.268-.252-.521-.485-.753-.7a3.663,3.663,0,0,1-.554.171Z"/><path class="a" d="M326.967,380.115c.284-.308.572-.615.861-.922a1.922,1.922,0,0,0-.461-.193l-.034-.007c-.13.138-.259.277-.388.415A1.941,1.941,0,0,0,326.967,380.115Z"/><path class="a" d="M336.554,374.21c.178.167.365.343.556.525.559.531,1.169,1.122,1.805,1.75l.308.305c.442.438.893.891,1.346,1.352l.234.24q.253.26.506.52l.222.229q.391.406.777.814c.1.1.193.2.288.3.813.865,1.582,1.711,2.253,2.489.091.106.18.21.267.313q.232.273.444.531c.134.164.259.321.38.475.181.23.349.451.5.656a6.372,6.372,0,0,1,.806,1.506q.1.27.173.546a5.431,5.431,0,0,1,.135.693c.021.154.035.307.041.46a4.731,4.731,0,0,1-.009.533l.044.007a2.074,2.074,0,0,1,.436.148,6.287,6.287,0,0,0-1.226-4.182,104.055,104.055,0,0,0-10.569-11.152,2.727,2.727,0,0,1-.467.24C336.033,373.725,336.286,373.958,336.554,374.21Z"/><path class="a" d="M347.086,387.792a1.765,1.765,0,0,0,.465-.333,5.431,5.431,0,0,0-.135-.693,1.727,1.727,0,0,0-.618-.315A5.122,5.122,0,0,1,347.086,387.792Z"/><path class="a" d="M347.592,387.919a1.866,1.866,0,0,1-.5.278c0,.07,0,.142,0,.211h.065a2.16,2.16,0,0,1,.425.044A4.731,4.731,0,0,0,347.592,387.919Z"/><path class="a" d="M337.577,375.878c.281.272.572.556.869.848a1.734,1.734,0,0,1,.469-.241c-.636-.628-1.246-1.219-1.805-1.75a2.163,2.163,0,0,1,.466,1.123C337.577,375.865,337.576,375.871,337.577,375.878Zm.508-.072a.964.964,0,0,0,.05.484l.294-.108.01.023-.333.143A.743.743,0,0,1,338.085,375.806Z"/><path class="a" d="M324.9,382.414a.893.893,0,0,1-.062-.072l.118-.106.018.017-.07.1.026.03c.549-.632,1.142-1.294,1.758-1.964-.008-.029-.019-.054-.026-.083a2.043,2.043,0,0,1-.067-.549q-.451.488-.886.97a2.268,2.268,0,0,1-.647.855,1.706,1.706,0,0,1-.281.189q-.389.444-.746.867a2.309,2.309,0,0,1,.528.142C324.675,382.677,324.788,382.546,324.9,382.414Z"/><path class="a" d="M340.3,378.584q.287.291.571.584a2.156,2.156,0,0,1,.434-.266q-.252-.261-.506-.52c-.024.013-.045.028-.069.04A2.859,2.859,0,0,1,340.3,378.584Z"/><path class="a" d="M328.542,378.44a2.437,2.437,0,0,1-.421-.279c-.189.2-.377.4-.565.6a1.823,1.823,0,0,1,.493.2C328.213,378.784,328.378,378.611,328.542,378.44Z"/><path class="a" d="M322.812,385c.162-.225.344-.466.542-.719a2.547,2.547,0,0,1-.05-.268,1.708,1.708,0,0,1,.009-.474c-.34.421-.644.816-.9,1.174a6.53,6.53,0,0,0-.931,1.86,1.908,1.908,0,0,1,.688-.431A6.13,6.13,0,0,1,322.812,385Z"/><path class="a" d="M334.272,372.838c.211.166.549.459.975.846a3.663,3.663,0,0,0,.554-.171,11.291,11.291,0,0,0-1.529-1.267,10.693,10.693,0,0,0-1.507,1.277,3.736,3.736,0,0,0,.545.163C333.726,373.3,334.059,373.005,334.272,372.838Z"/><path class="a" d="M332.765,373.523a10.693,10.693,0,0,1,1.507-1.277,11.291,11.291,0,0,1,1.529,1.267,2.727,2.727,0,0,0,.467-.24,12.448,12.448,0,0,0-1.8-1.481l-.193-.083-.194.083a11.385,11.385,0,0,0-1.784,1.493A2.88,2.88,0,0,0,332.765,373.523Z"/><path class="a" d="M346.493,396.159l-.01.022v2.028a2.707,2.707,0,0,0,.493.788v-2.731c-.021-.007-.039-.016-.06-.022A4.225,4.225,0,0,0,346.493,396.159Z"/><path class="a" d="M322.342,402.271v-1.209h-.07v-.008h.069v-.809h-.115v-.006h.115v-1.222a3.03,3.03,0,0,1-.493.552v1.342l.123.048-.021.041-.1-.062v.764A2.711,2.711,0,0,1,322.342,402.271Z"/><path class="a" d="M322.342,405.456a.473.473,0,0,1-.178.02c-.107-.007-.212-.02-.315-.037v2.689h.493Z"/><path class="a" d="M322.283,395.817a.284.284,0,0,1,.059,0v-3h-.493v3.036C321.992,395.834,322.139,395.833,322.283,395.817Z"/><path class="a" d="M322.218,405.134a1.623,1.623,0,0,0,.124-.286V403.4a2.848,2.848,0,0,0-.493-.98v2.639C321.973,405.093,322.1,405.111,322.218,405.134Z"/><path class="a" d="M346.483,399.182v1.063h0v1.866a2.717,2.717,0,0,1,.493-.495v-.744c-.072.042-.143.085-.214.128l-.02-.041.234-.092v-.417l-.042-.04.018-.024.024.019v-.725A2.642,2.642,0,0,1,346.483,399.182Z"/><path class="a" d="M346.483,403.073v2.04a1.733,1.733,0,0,0,.493-.085v-2.734A2.741,2.741,0,0,0,346.483,403.073Z"/><path class="a" d="M346.976,405.414l-.037.011a3.625,3.625,0,0,1-.456.049v2.654h.493Z"/><path class="a" d="M346.483,392.819v3a.53.53,0,0,1,.106,0,3.465,3.465,0,0,1,.387.057v-3.054Z"/><path class="a" d="M346.976,392.819v15.309h.182a2.274,2.274,0,0,1,.311.024V392.794a2.274,2.274,0,0,1-.311.025Z"/><path class="a" d="M322.342,397.9V396.43a1.568,1.568,0,0,0-.112-.254,1.673,1.673,0,0,0-.381.053v2.647A2.847,2.847,0,0,0,322.342,397.9Z"/><path class="a" d="M321.849,408.128V392.819h-.106a2.153,2.153,0,0,1-.387-.037v15.382a2.15,2.15,0,0,1,.387-.036Z"/><path class="a" d="M347.912,389.531l-.5-.109a1.211,1.211,0,0,1,.946,1.176v.03a1.205,1.205,0,0,1-1.2,1.2h.311v.962a2.193,2.193,0,0,0,1.879-2.166v-.03a2.2,2.2,0,0,0-1.285-1.991c-.013.143-.031.285-.057.425Z"/><path class="a" d="M321.356,391.832h.387a1.205,1.205,0,0,1-1.2-1.2v-.03a1.207,1.207,0,0,1,.888-1.162l-.517.139-.1-.527c-.024-.133-.04-.269-.053-.4a2.192,2.192,0,0,0-1.208,1.955v.03a2.192,2.192,0,0,0,1.8,2.154Z"/><path class="a" d="M337.193,388.408h-1.352a2.042,2.042,0,0,0-.337.493h1.686A1.7,1.7,0,0,0,337.193,388.408Z"/><path class="a" d="M332.051,388.408a1.778,1.778,0,0,0-.017.335c0,.054.01.106.018.158h1.687a2.068,2.068,0,0,0-.336-.493Z"/><path class="a" d="M347.093,388.408h-2.8a2.025,2.025,0,0,1,.892.493h1.97a1.733,1.733,0,0,1,.363.039,4.365,4.365,0,0,0,.062-.488,2.16,2.16,0,0,0-.425-.044Z"/><path class="a" d="M333.875,388.408a2.645,2.645,0,0,1,.248.493h1a2.38,2.38,0,0,1,.243-.493Z"/><path class="a" d="M343.8,388.616a2.2,2.2,0,0,0-.094.285h.942a1.9,1.9,0,0,0-.471-.227A.873.873,0,0,0,343.8,388.616Z"/><path class="a" d="M331.673,388.408h-.518a.769.769,0,0,1,.006.491,1.057,1.057,0,0,0-.048-.485l-.184.041-.006-.022.067-.025h-3.423a2.028,2.028,0,0,1,.89.493h3.224c0-.026-.01-.05-.014-.076A1.66,1.66,0,0,1,331.673,388.408Z"/><path class="a" d="M326.9,388.408h-1.288a.382.382,0,0,1,.042.063,2.154,2.154,0,0,1,.177.43h.843a2.288,2.288,0,0,1,.169-.415A.328.328,0,0,1,326.9,388.408Z"/><path class="a" d="M327.087,388.608a1.411,1.411,0,0,0-.109.293h.937c-.031-.021-.062-.044-.1-.064A1.5,1.5,0,0,0,327.087,388.608Z"/><path class="a" d="M324.592,388.9h.943a1.239,1.239,0,0,0-.121-.3A1.878,1.878,0,0,0,324.592,388.9Z"/><path class="a" d="M321.743,388.408c-.061,0-.121.007-.182.012l.029.01-.007.025-.127-.028c-.02,0-.04.009-.061.012a.952.952,0,0,0-.039.46.752.752,0,0,1-.014-.449c-.034.006-.068.012-.1.02a4.4,4.4,0,0,0,.059.49,1.7,1.7,0,0,1,.444-.059h2.307a2.165,2.165,0,0,1,.919-.493Z"/><path class="a" d="M343.633,388.408h-1.287a.227.227,0,0,1,.027.039,2.04,2.04,0,0,1,.192.454h.843a2.233,2.233,0,0,1,.172-.419A.337.337,0,0,1,343.633,388.408Z"/><path class="a" d="M341.328,388.9h.94a1.388,1.388,0,0,0-.111-.288A1.575,1.575,0,0,0,341.328,388.9Z"/><path class="a" d="M320.814,389.048l.1.527.517-.139a1.213,1.213,0,0,1,.316-.042h25.415a1.226,1.226,0,0,1,.257.028h0l.5.109.094-.5c.026-.14.044-.282.057-.425a2.074,2.074,0,0,0-.436-.148l-.044-.007a4.365,4.365,0,0,1-.062.488,1.733,1.733,0,0,0-.363-.039H321.743a1.7,1.7,0,0,0-.444.059,4.4,4.4,0,0,1-.059-.49c-.023.006-.046.008-.069.014a2.113,2.113,0,0,0-.41.159C320.774,388.779,320.79,388.915,320.814,389.048Z"/><path class="a" d="M338.256,388.408l.067.021-.007.027-.18-.041a.854.854,0,0,0-.056.451.726.726,0,0,1,.005-.458h-.507a1.7,1.7,0,0,1-.005.493h3.207a2.172,2.172,0,0,1,.921-.493Z"/><path class="a" d="M336.116,392.819h1.606a2.3,2.3,0,0,0,.048-.493H335.7A2.588,2.588,0,0,0,336.116,392.819Z"/><path class="a" d="M335.448,392.819a3.109,3.109,0,0,1-.3-.493h-1.577a2.943,2.943,0,0,1-.312.493Z"/><path class="a" d="M338.223,392.819h2.246a3.268,3.268,0,0,1,1.125,0h5.382v-.131c-.161.03-.329.033-.492.058s-.247-.056-.319-.189c-.041-.076-.077-.154-.11-.231h-1.334c-.035.079-.073.157-.115.236a.311.311,0,0,1-.321.187,2.664,2.664,0,0,1-1.391-.423h-3.98a.761.761,0,0,0,.073.331l.316-.1.012.034-.369.143a1.041,1.041,0,0,1-.073-.41h-.613c0,.022,0,.043,0,.065A2.267,2.267,0,0,1,338.223,392.819Z"/><path class="a" d="M330.989,392.819H332.6a2.552,2.552,0,0,0,.419-.493h-2.07A2.245,2.245,0,0,0,330.989,392.819Z"/><path class="a" d="M321.849,392.819v-.493h25.127v.493h.182a2.274,2.274,0,0,0,.311-.025v-.962H321.356v.95a2.153,2.153,0,0,0,.387.037Z"/><path class="a" d="M327.126,392.819a2.809,2.809,0,0,1,1.162,0h2.2a2.565,2.565,0,0,1-.046-.493h-.6a1.043,1.043,0,0,1-.074.41l-.369-.143.013-.035.307.1a.629.629,0,0,0,.082-.332h-3.989a2.649,2.649,0,0,1-1.4.422.3.3,0,0,1-.305-.179c-.043-.081-.082-.162-.118-.243h-1.333c-.033.078-.071.155-.112.232a.309.309,0,0,1-.319.191,2.9,2.9,0,0,1-.379-.038v.108h5.277Z"/><path class="a" d="M347.469,409.114h-.311a1.205,1.205,0,0,1,1.2,1.2v.03a1.2,1.2,0,0,1-.926,1.171l.526-.127.077.536c.02.134.031.27.039.406a2.178,2.178,0,0,0,1.27-1.986v-.03a2.192,2.192,0,0,0-1.879-2.166Z"/><path class="a" d="M320.8,411.9l.088-.552.531.155a1.208,1.208,0,0,1-.877-1.159v-.03a1.205,1.205,0,0,1,1.2-1.2h-.387v-.95a2.193,2.193,0,0,0-1.8,2.154v.03a2.2,2.2,0,0,0,1.2,1.952C320.763,412.167,320.777,412.035,320.8,411.9Z"/><path class="a" d="M322.516,412.538H324.8A1.948,1.948,0,0,0,322.516,412.538Z"/><path class="a" d="M321.346,412.5a2.08,2.08,0,0,0,.4.041h.272a2.018,2.018,0,0,1,.595-.493h-.867a1.692,1.692,0,0,1-.226-.015,2.565,2.565,0,0,1-.11.331C321.388,412.407,321.366,412.452,321.346,412.5Z"/><path class="a" d="M325.2,412.538h3.115a1.686,1.686,0,0,1,.463-.393c.066-.037.133-.069.2-.1h-4.42a2.317,2.317,0,0,1,.49.33A1.465,1.465,0,0,1,325.2,412.538Z"/><path class="a" d="M331.5,412.538h.687c-.023-.051-.047-.1-.071-.162a2.663,2.663,0,0,1-.116-.331H330.9A1.852,1.852,0,0,1,331.5,412.538Z"/><path class="a" d="M321.146,412.455c.029.008.06.012.089.019a4.693,4.693,0,0,1,.049-.492,1.657,1.657,0,0,0,.233.048,1.692,1.692,0,0,0,.226.015h25.415a1.639,1.639,0,0,0,.393-.047,4.461,4.461,0,0,1,.042.493c.024-.005.048-.007.072-.013a2.193,2.193,0,0,0,.413-.144c-.008-.136-.019-.272-.039-.406l-.077-.536-.526.127a1.2,1.2,0,0,1-.278.033H321.743a1.153,1.153,0,0,1-.321-.044h-.006l-.531-.155-.088.552c-.02.131-.034.263-.044.4A2.171,2.171,0,0,0,321.146,412.455Z"/><path class="a" d="M333.628,412.217a1.756,1.756,0,0,1-.614.321h3.511a1.9,1.9,0,0,1-.8-.493h-1.91C333.755,412.1,333.694,412.162,333.628,412.217Z"/><path class="a" d="M346.3,412.2a2.13,2.13,0,0,0-.708-.01,1.892,1.892,0,0,0-.855.344h2.277A1.543,1.543,0,0,0,346.3,412.2Z"/><path class="a" d="M341.222,412.538h3.106a1.65,1.65,0,0,1,.469-.393c.066-.037.133-.069.2-.1h-4.419a2.3,2.3,0,0,1,.484.328A1.675,1.675,0,0,1,341.222,412.538Z"/><path class="a" d="M337.085,412.259a.334.334,0,0,0,.026-.054c.021-.053.039-.107.055-.16h-.877a1.525,1.525,0,0,0,.777.235A.125.125,0,0,0,337.085,412.259Z"/><path class="a" d="M340.811,412.538a1.985,1.985,0,0,0-1.36-.359,1.584,1.584,0,0,0-.911.359Z"/><path class="a" d="M337.421,412.37c-.024.056-.05.111-.075.168h.687a2.018,2.018,0,0,1,.6-.493h-1.093A2.555,2.555,0,0,1,337.421,412.37Z"/><path class="a" d="M333.242,412.045h-.87a1.614,1.614,0,0,0,.1.242A1.635,1.635,0,0,0,333.242,412.045Z"/><path class="a" d="M347.551,412a1.639,1.639,0,0,1-.393.047h-.244a1.84,1.84,0,0,1,.584.463l.1-.017A4.461,4.461,0,0,0,347.551,412Z"/><path class="a" d="M331,412.538a1.946,1.946,0,0,0-2.281,0Z"/><path class="a" d="M329.2,408.128a2.3,2.3,0,0,1-.759.313,3.049,3.049,0,0,1-2.252-.313h-4.342v.451a1.385,1.385,0,0,1,.223-.025c.271,0,.34-.03.411.067h1.694a.277.277,0,0,1,.222-.075,2.69,2.69,0,0,1,.615.075H329.6l.167-.064c.009.021.013.042.021.064h.68a2.68,2.68,0,0,1,.109-.493Z"/><path class="a" d="M321.356,409.114h26.113v-.962a2.274,2.274,0,0,0-.311-.024h-.182v.493H321.849v-.493h-.106a2.15,2.15,0,0,0-.387.036Z"/><path class="a" d="M332.083,408.128h-1a2.3,2.3,0,0,0-.121.493h1.778A2.194,2.194,0,0,0,332.083,408.128Z"/><path class="a" d="M335.773,408.128h-2.82a2.641,2.641,0,0,1,.409.493h1.987A3.01,3.01,0,0,1,335.773,408.128Z"/><path class="a" d="M336.634,408.128a2.342,2.342,0,0,0-.656.493h1.77a2.592,2.592,0,0,0-.122-.493Z"/><path class="a" d="M342.523,408.128c-.042.022-.08.049-.123.07a2.992,2.992,0,0,1-2.7.031c-.061-.03-.116-.067-.173-.1h-1.391a3.1,3.1,0,0,1,.1.493h.685c.007-.02.011-.04.019-.06l.171.06h4.639c.048-.013.092-.029.143-.04a3.748,3.748,0,0,1,.426-.033.231.231,0,0,1,.208.073h1.724a.331.331,0,0,1,.242-.076,2.947,2.947,0,0,1,.477.055v-.472h-4.453Z"/><path class="a" d="M344.285,392.749a.311.311,0,0,0,.321-.187c.042-.079.08-.157.115-.236h-.389c-.012.023-.025.046-.039.071a1.865,1.865,0,0,1-.433-.071h-.966A2.664,2.664,0,0,0,344.285,392.749Z"/><path class="a" d="M322.547,392.558c.041-.077.079-.154.112-.232h-.381c-.009.025-.017.049-.026.076-.117-.016-.225-.021-.327-.046-.026-.006-.05-.016-.076-.023v.378a2.9,2.9,0,0,0,.379.038A.309.309,0,0,0,322.547,392.558Z"/><path class="a" d="M324.415,392.748a2.649,2.649,0,0,0,1.4-.422h-.967a1.606,1.606,0,0,1-.424.06c-.011-.019-.018-.041-.028-.06h-.4c.036.081.075.162.118.243A.3.3,0,0,0,324.415,392.748Z"/><path class="a" d="M346.484,392.746c.163-.025.331-.028.492-.058v-.362h-.065a1.574,1.574,0,0,1-.429.06c-.011-.019-.018-.041-.028-.06h-.4c.033.077.069.155.11.231C346.237,392.69,346.32,392.772,346.484,392.746Z"/><path class="a" d="M346.126,396.076a2.724,2.724,0,0,0-.2,1.909,3.37,3.37,0,0,0,.559,1.2v-.973a2.448,2.448,0,0,1,0-2.028v-.363A.393.393,0,0,0,346.126,396.076Z"/><path class="a" d="M346.483,405.113h-.011a2.49,2.49,0,0,1,.011-2.041v-.962a3.272,3.272,0,0,0-.56,1.2,2.674,2.674,0,0,0,.256,2,.275.275,0,0,0,.293.166h.011Z"/><path class="a" d="M346.483,402.111v.962a2.741,2.741,0,0,1,.493-.779v-.678A2.717,2.717,0,0,0,346.483,402.111Z"/><path class="a" d="M346.483,398.209v.973a2.642,2.642,0,0,0,.493.5V399A2.707,2.707,0,0,1,346.483,398.209Z"/><path class="a" d="M346.483,405.474a3.625,3.625,0,0,0,.456-.049l.037-.011v-.386a1.733,1.733,0,0,1-.493.085Z"/><path class="a" d="M346.483,395.818v.363l.01-.022a4.225,4.225,0,0,1,.423.085c.021.006.039.015.06.022v-.393a3.465,3.465,0,0,0-.387-.057A.53.53,0,0,0,346.483,395.818Z"/><path class="a" d="M326.389,404.574a2.752,2.752,0,0,0,.718-2.8c-.065-.213-.159-.418-.24-.628a.691.691,0,0,1,.646-.366c.036.051.076.1.115.16a2.9,2.9,0,0,0,1.074.952,2.937,2.937,0,0,0,2.188.141,2.65,2.65,0,0,0,1.606-1.243.224.224,0,0,0,0-.28,4.827,4.827,0,0,0-.482-.6,2.975,2.975,0,0,0-2.7-.714,2.65,2.65,0,0,0-1.653,1.115c-.053.07-.1.142-.152.211a.721.721,0,0,1-.645-.362.224.224,0,0,1,.008-.049c.021-.05.044-.1.067-.149a2.965,2.965,0,0,0,.292-1.2,2.864,2.864,0,0,0-.849-2.04,2.662,2.662,0,0,0-1.827-.89c-.387-.026-.334-.047-.5.28a2.571,2.571,0,0,0-.193,1.888A2.784,2.784,0,0,0,326.1,400.2c.179.036.362.051.551.076a.791.791,0,0,1,.053.61.2.2,0,0,1-.2.154,2.725,2.725,0,0,0-2.46,1.738,2.768,2.768,0,0,0,.026,2.428c.137.276.166.285.477.263A2.689,2.689,0,0,0,326.389,404.574Zm5.789-3.944a2.578,2.578,0,0,1-4.16.009,2.327,2.327,0,0,1,2.007-1.036A2.581,2.581,0,0,1,332.178,400.63Zm-4.737-.012-.007.043a1.63,1.63,0,0,0-.353.109c-.1.062-.185.168-.307.241a1.567,1.567,0,0,0,.085-.36,1.624,1.624,0,0,0-.086-.368l.044-.031A.76.76,0,0,0,327.441,400.618Zm-.92-.9a.41.41,0,0,1-.035.054,2.3,2.3,0,0,1-1.775-1.025,2.641,2.641,0,0,1-.3-2.592c.164.032.312.051.452.093a2.645,2.645,0,0,1,1.567,1.315,2.309,2.309,0,0,1,.127,2.081A.694.694,0,0,1,326.521,399.716Zm-.021,1.816a2.307,2.307,0,0,1-.094,2.234,2.6,2.6,0,1,1,.094-2.234Z"/><path class="a" d="M322.851,396.966a2.357,2.357,0,0,0-.34-1.018.226.226,0,0,0-.169-.129v.611a2.476,2.476,0,0,1,0,1.474v1.113A3.068,3.068,0,0,0,322.851,396.966Z"/><path class="a" d="M322.568,405.251a2.684,2.684,0,0,0,.22-1.944,3.5,3.5,0,0,0-.446-1.036V403.4a2.48,2.48,0,0,1,0,1.446v.608A.367.367,0,0,0,322.568,405.251Z"/><path class="a" d="M322.164,405.476a.473.473,0,0,0,.178-.02v-.608a1.623,1.623,0,0,1-.124.286c-.117-.023-.245-.041-.369-.073v.378C321.952,405.456,322.057,405.469,322.164,405.476Z"/><path class="a" d="M322.342,403.4v-1.131a2.711,2.711,0,0,0-.493-.569v.72A2.848,2.848,0,0,1,322.342,403.4Z"/><path class="a" d="M322.342,399.017V397.9a2.847,2.847,0,0,1-.493.972v.693A3.03,3.03,0,0,0,322.342,399.017Z"/><path class="a" d="M322.23,396.176a1.568,1.568,0,0,1,.112.254v-.611a.284.284,0,0,0-.059,0c-.144.016-.291.017-.434.038v.374A1.673,1.673,0,0,1,322.23,396.176Z"/><path class="a" d="M344.276,405.476a.288.288,0,0,0,.326-.182c.022-.057.058-.108.083-.163a2.73,2.73,0,0,0,.069-2.147,2.762,2.762,0,0,0-1.573-1.727,2.907,2.907,0,0,0-.972-.216.191.191,0,0,1-.2-.158.763.763,0,0,1,.053-.6.183.183,0,0,1,.031-.015l.162-.017a2.815,2.815,0,0,0,1.546-.578,3.046,3.046,0,0,0,1.122-2.149,2.567,2.567,0,0,0-.347-1.569.231.231,0,0,0-.245-.14,4.306,4.306,0,0,0-.546.061,2.975,2.975,0,0,0-2.236,2.234,2.606,2.606,0,0,0,.188,1.773c.037.087.076.173.114.26a.721.721,0,0,1-.634.37.208.208,0,0,1-.029-.015c-.041-.055-.08-.11-.12-.165a2.853,2.853,0,0,0-1.045-.925,2.96,2.96,0,0,0-2.381-.088,2.623,2.623,0,0,0-1.41,1.152.259.259,0,0,0,0,.333,5.168,5.168,0,0,0,.488.6,2.979,2.979,0,0,0,2.6.713,2.662,2.662,0,0,0,1.73-1.135c.052-.07.1-.143.15-.21a.743.743,0,0,1,.653.377c-.039.087-.079.174-.116.261a2.7,2.7,0,0,0-.247,1.412,3.032,3.032,0,0,0,1.539,2.307A2.566,2.566,0,0,0,344.276,405.476Zm-7.732-4.826a2.574,2.574,0,0,1,4.141-.01A2.574,2.574,0,0,1,336.544,400.65Zm7.749-4.474a2.566,2.566,0,0,1-2.07,3.58A2.566,2.566,0,0,1,344.293,396.176Zm-2.645,4.6a1.738,1.738,0,0,0-.362-.115c0-.011,0-.023,0-.035a1.623,1.623,0,0,0,.358-.112c.1-.061.183-.167.3-.236a1.543,1.543,0,0,0-.086.363c0,.122.055.244.059.385A1.527,1.527,0,0,0,341.648,400.779Zm1.072,3.552a2.639,2.639,0,0,1-.745-1.616,2.519,2.519,0,0,1,.233-1.178,2.566,2.566,0,0,1,2.076,3.6c-.122-.022-.256-.037-.384-.071A2.386,2.386,0,0,1,342.72,404.331Z"/><path class="a" d="M343.521,407.158a.26.26,0,0,0,0-.3,2.54,2.54,0,0,0-.514-.63,3.025,3.025,0,0,0-2.694-.663,2.651,2.651,0,0,0-1.614,1.1c-.052.07-.1.142-.154.214a.728.728,0,0,1-.651-.372c.024-.054.045-.111.07-.165a2.985,2.985,0,0,0,.3-1.2,2.831,2.831,0,0,0-.8-2.017,2.719,2.719,0,0,0-1.988-.947.322.322,0,0,0-.34.191,2.67,2.67,0,0,0-.24,1.979,2.8,2.8,0,0,0,2.489,2.253c.1.011.2.025.29.036a.735.735,0,0,1,0,.733c-.1.011-.2.022-.309.036a2.694,2.694,0,0,0-1.423.564c-.058.049-.11.1-.164.151h.861a2.3,2.3,0,0,1,.9-.243q.054.121.1.243h.512a3.016,3.016,0,0,0-.2-.5.193.193,0,0,1,.04-.251.74.74,0,0,1,.545-.249.147.147,0,0,1,.028.019l.12.165a2.914,2.914,0,0,0,.854.813h2.994A2.568,2.568,0,0,0,343.521,407.158Zm-7.1-4.319a2.781,2.781,0,0,1,1.308,1.8,2.285,2.285,0,0,1-.19,1.485,2.563,2.563,0,0,1-2.084-3.583A2,2,0,0,1,336.418,402.839Zm1.427,4.553-.038-.028a1.506,1.506,0,0,0,.08-.354c0-.12-.052-.24-.053-.375a1.777,1.777,0,0,0,.276.254,1.532,1.532,0,0,0,.338.1l.006.049A.719.719,0,0,0,337.845,407.392Zm1.2-.39a2.325,2.325,0,0,1,1.885-1.028A2.606,2.606,0,1,1,339.05,407Z"/><path class="a" d="M339.529,408.128c.057.034.112.071.173.1a2.992,2.992,0,0,0,2.7-.031c.043-.021.081-.048.123-.07Z"/><path class="a" d="M337.626,408.128a2.592,2.592,0,0,1,.122.493h.494a3.1,3.1,0,0,0-.1-.493Z"/><path class="a" d="M336.634,408.128h-.861a3.01,3.01,0,0,0-.424.493h.629A2.342,2.342,0,0,1,336.634,408.128Z"/><path class="a" d="M331.492,407.431c-.153-.027-.308-.039-.451-.057a.724.724,0,0,1,0-.726.2.2,0,0,1,.03-.01l.162-.017a2.8,2.8,0,0,0,1.529-.569,3.051,3.051,0,0,0,1.14-2.264,2.57,2.57,0,0,0-.335-1.432.264.264,0,0,0-.288-.17,5.425,5.425,0,0,0-.546.065,2.971,2.971,0,0,0-2.125,1.941,2.63,2.63,0,0,0,.1,2.047c.039.093.082.185.123.275a.751.751,0,0,1-.47.349c-.174.035-.173.043-.281-.112a2.822,2.822,0,0,0-1.064-.963,2.991,2.991,0,0,0-2.734.051,2.554,2.554,0,0,0-1.074,1,.261.261,0,0,0,.005.334,4.73,4.73,0,0,0,.49.6,3.165,3.165,0,0,0,.494.356H329.2a3.117,3.117,0,0,0,.838-.815c.047-.064.094-.129.133-.184a.752.752,0,0,1,.65.381l-.1.215a3.687,3.687,0,0,0-.151.4h.513a2.616,2.616,0,0,1,.1-.248,2.647,2.647,0,0,1,.892.248h.87A2.786,2.786,0,0,0,331.492,407.431Zm-.227-3.516a2.6,2.6,0,1,1-.082,2.217A2.311,2.311,0,0,1,331.265,403.915Zm-3.385,4.123a2.7,2.7,0,0,1-2.025-.637c-.125-.11-.232-.244-.357-.377.055-.074.094-.136.142-.191a2.505,2.505,0,0,1,1.751-.85,2.443,2.443,0,0,1,1.4.246,2.633,2.633,0,0,1,.873.782A2.342,2.342,0,0,1,327.88,408.038Zm2.734-.9a1.93,1.93,0,0,0-.39-.125,1.842,1.842,0,0,0,.378-.123,1.654,1.654,0,0,0,.277-.254l.029.015a1.567,1.567,0,0,0-.082.361c0,.116.054.231.056.369A1.651,1.651,0,0,0,330.614,407.137Z"/><path class="a" d="M332.953,408.128h-.87a2.194,2.194,0,0,1,.661.493h.618A2.641,2.641,0,0,0,332.953,408.128Z"/><path class="a" d="M326.191,408.128a3.049,3.049,0,0,0,2.252.313,2.3,2.3,0,0,0,.759-.313Z"/><path class="a" d="M330.574,408.128a2.68,2.68,0,0,0-.109.493h.5a2.3,2.3,0,0,1,.121-.493Z"/><path class="a" d="M325.2,394.127a.247.247,0,0,0,.006.315,4.911,4.911,0,0,0,.474.584,2.978,2.978,0,0,0,2.658.714,2.657,2.657,0,0,0,1.689-1.129c.052-.07.1-.142.148-.2a.737.737,0,0,1,.652.376c-.041.092-.081.178-.118.266a2.734,2.734,0,0,0-.242,1.433,3.035,3.035,0,0,0,1.385,2.188,2.638,2.638,0,0,0,1.4.441.309.309,0,0,0,.323-.187,2.662,2.662,0,0,0,.259-1.92,2.815,2.815,0,0,0-2.476-2.318c-.107-.013-.214-.022-.331-.034a1.191,1.191,0,0,1-.082-.319.9.9,0,0,1,.093-.387c.026-.049.159-.047.245-.056a2.756,2.756,0,0,0,1.5-.582,3.21,3.21,0,0,0,.475-.488H332.6a.8.8,0,1,1-1.606,0h-.5a3.364,3.364,0,0,0,.218.707c.039.092.08.183.115.264a.751.751,0,0,1-.651.37l-.14-.193a2.736,2.736,0,0,0-1.032-.909,3.193,3.193,0,0,0-.712-.239h-1.162a3.462,3.462,0,0,0-1.019.39A2.484,2.484,0,0,0,325.2,394.127Zm7.836,2.143a2.6,2.6,0,0,1,.244,2.488,2.069,2.069,0,0,1-.983-.306,2.784,2.784,0,0,1-1.3-1.778,1.138,1.138,0,1,1,2.041-.4Zm-2.771-2a1.59,1.59,0,0,0,.348-.111c.1-.061.182-.166.3-.234a1.589,1.589,0,0,0-.084.363,1.422,1.422,0,0,0,.086.347c-.013.013-.026.026-.038.04a.758.758,0,0,0-.621-.365Zm-.61,0a2.564,2.564,0,0,1-4.135.01A2.564,2.564,0,0,1,329.651,394.272Z"/><path class="a" d="M332.6,392.819h.665a2.943,2.943,0,0,0,.312-.493h-.558A2.552,2.552,0,0,1,332.6,392.819Z"/><path class="a" d="M328.288,392.819a2.809,2.809,0,0,0-1.162,0Z"/><path class="a" d="M330.49,392.819h.5a2.245,2.245,0,0,1-.045-.493h-.5A2.565,2.565,0,0,0,330.49,392.819Z"/><path class="a" d="M337.3,393.872c.127.018.255.028.371.041a.737.737,0,0,1,0,.742c-.069.006-.136.01-.2.017a2.718,2.718,0,0,0-1.813.835,3.091,3.091,0,0,0-.845,2.214,2.581,2.581,0,0,0,.354,1.244.233.233,0,0,0,.244.142,3.989,3.989,0,0,0,.526-.057,2.969,2.969,0,0,0,2.257-2.237,2.63,2.63,0,0,0-.211-1.829c-.032-.073-.063-.146-.091-.209a.723.723,0,0,1,.659-.363c.051.072.1.14.146.206a2.846,2.846,0,0,0,1.038.9,2.98,2.98,0,0,0,2.381.077,2.526,2.526,0,0,0,1.291-.99c.242-.363.239-.281.005-.639a2.29,2.29,0,0,0-.388-.446,2.927,2.927,0,0,0-1.428-.7h-1.125c-.077.012-.153.022-.231.04a2.64,2.64,0,0,0-1.55,1.1l-.147.206a.747.747,0,0,1-.651-.38c.042-.091.081-.177.119-.264a3.141,3.141,0,0,0,.214-.7h-.5a2.973,2.973,0,0,1-.139.473.707.707,0,0,1-.036.073.183.183,0,0,1-.027.029,2.131,2.131,0,0,1-1.4-.575h-.668A2.7,2.7,0,0,0,337.3,393.872Zm3.508-.617a2.693,2.693,0,0,1,2.047.631c.131.114.241.253.356.375a2.572,2.572,0,0,1-4.154.011A2.321,2.321,0,0,1,340.8,393.255Zm-5.356,5.486a2.568,2.568,0,0,1,2.08-3.576A2.568,2.568,0,0,1,335.449,398.741Zm2.654-4.582a1.932,1.932,0,0,0,.389.122,1.969,1.969,0,0,0-.388.125,1.56,1.56,0,0,0-.265.244l-.034-.008a1.69,1.69,0,0,0,.082-.368c0-.115-.054-.231-.056-.365A1.642,1.642,0,0,0,338.1,394.159Z"/><path class="a" d="M337.722,392.819h.5a2.267,2.267,0,0,0,.041-.428c0-.022,0-.043,0-.065h-.49A2.3,2.3,0,0,1,337.722,392.819Z"/><path class="a" d="M336.116,392.819a2.588,2.588,0,0,1-.417-.493h-.55a3.109,3.109,0,0,0,.3.493Z"/><path class="a" d="M339.333,405.269l-.341.116a1.181,1.181,0,0,1-.078-.585.9.9,0,0,0,.033.65A.728.728,0,0,0,339.333,405.269Z"/><path class="a" d="M329.79,404.756a1.164,1.164,0,0,1-.069.628l-.344-.113-.01.032.4.16A.983.983,0,0,0,329.79,404.756Z"/><path class="a" d="M340.82,398.4a1.188,1.188,0,0,1-.065.616l-.354-.118-.011.031.394.161A.857.857,0,0,0,340.82,398.4Z"/><path class="a" d="M327.956,399.018a1.28,1.28,0,0,1-.07-.6.874.874,0,0,0,.029.655c.238-.051.282-.072.378-.173Z"/><path class="a" d="M339.005,395.92c.079.017.161.033.242.049a.469.469,0,0,0-.305-.119.936.936,0,0,0-.027.666C338.917,396.058,338.917,396.058,339.005,395.92Z"/><path class="a" d="M329.479,395.935l.007.028.246-.043a1.252,1.252,0,0,1,.067.573.9.9,0,0,0-.034-.656Z"/><path class="a" d="M338.946,392.736l.369-.143-.012-.034-.316.1a.761.761,0,0,1-.073-.331h-.041A1.041,1.041,0,0,0,338.946,392.736Z"/><path class="a" d="M329.718,392.658l-.307-.1-.013.035.369.143a1.043,1.043,0,0,0,.074-.41H329.8A.629.629,0,0,1,329.718,392.658Z"/><path class="a" d="M327.958,402.284l.237.051.009-.033-.291-.1a1.018,1.018,0,0,0-.019.714A1.164,1.164,0,0,1,327.958,402.284Z"/><path class="a" d="M340.509,402.307l.008.029.243-.055a1.393,1.393,0,0,1,.064.641.989.989,0,0,0-.033-.72Z"/><path class="a" d="M343.6,400.629l.236-.218-.027-.027-.318.268.238.177Z"/><path class="a" d="M324.873,400.41l.236.225-.127.193.241-.184-.332-.258Z"/><path class="a" d="M330.132,378.614a2.012,2.012,0,0,0,1.214-.853l.1-.143a.555.555,0,0,1,.492.289c-.031.07-.063.135-.09.2a2.171,2.171,0,0,0-.184,1.087,2.235,2.235,0,0,0,.607,1.279,2.057,2.057,0,0,0,1.512.709.235.235,0,0,0,.244-.141,2,2,0,0,0,.184-1.5,2.107,2.107,0,0,0-1.747-1.691c-.12-.022-.243-.032-.36-.047a.564.564,0,0,1,0-.567l.207-.022a2.06,2.06,0,0,0,1.109-.434,2.314,2.314,0,0,0,.849-1.71,1.946,1.946,0,0,0-.264-1.1.176.176,0,0,0-.184-.108,2.933,2.933,0,0,0-.339.026,2.476,2.476,0,0,0-.63.22c-.268.254-.562.538-.873.842a2.892,2.892,0,0,0-.272.643,2,2,0,0,0,.163,1.4l.065.144a.566.566,0,0,1-.481.285c-.01-.007-.021-.011-.026-.019-.031-.041-.061-.083-.091-.125a2.091,2.091,0,0,0-.78-.691c-.053-.026-.107-.045-.16-.066l-.289.293a.842.842,0,1,1-.411,1.489,2.346,2.346,0,0,1-.917-.122c-.082.084-.163.169-.245.255A2.35,2.35,0,0,0,330.132,378.614Zm3.67-4.485a1.923,1.923,0,0,1-.12,1.773,1.754,1.754,0,0,1-1.453.954A1.948,1.948,0,0,1,333.8,374.129Zm-1.585,4.056a1.758,1.758,0,0,1,1.339.757,2.035,2.035,0,0,1,.356,1.657,1.951,1.951,0,0,1-.07.221.65.65,0,0,1-.05.1,1.513,1.513,0,0,1-.733-.229,2.112,2.112,0,0,1-.989-1.347A1.757,1.757,0,0,1,332.217,378.185Z"/><path class="a" d="M331.986,374.952c.311-.3.605-.588.873-.842A2.109,2.109,0,0,0,331.986,374.952Z"/><path class="a" d="M328.787,378.185a1.813,1.813,0,0,1-.458-.242l-.208.218a2.437,2.437,0,0,0,.421.279C328.624,378.354,328.7,378.269,328.787,378.185Z"/><path class="a" d="M330.115,376.818l.289-.293a2.239,2.239,0,0,0-.554-.146l-.349.355A1.943,1.943,0,0,1,330.115,376.818Z"/><path class="a" d="M335.235,373.97a3.839,3.839,0,0,0-.2.515,2.231,2.231,0,0,0,.357,1.827,1.885,1.885,0,0,0,1.082.8,4.446,4.446,0,0,0,.577.107.139.139,0,0,1,.131.1.584.584,0,0,1-.041.478c-.09.01-.177.019-.264.031a2.034,2.034,0,0,0-1.049.422,2.315,2.315,0,0,0-.855,1.707,1.958,1.958,0,0,0,.244,1.073c.055.1.117.163.242.144.142-.022.289-.02.428-.055a2.256,2.256,0,0,0,1.583-1.463,2,2,0,0,0-.076-1.566l-.086-.2a.552.552,0,0,1,.48-.285l.022.013.1.138a2.1,2.1,0,0,0,.77.681,2.185,2.185,0,0,0,1.63.133l-.284-.288a2.21,2.21,0,0,1-.889-.06,1.749,1.749,0,0,1-.947-.7,1.649,1.649,0,0,1,.537-.537l-.275-.271a2.458,2.458,0,0,0-.544.552l-.107.148a.559.559,0,0,1-.487-.275.065.065,0,0,1,0-.022c.02-.048.041-.1.062-.142a2.18,2.18,0,0,0,.206-1.109l-.506-.488a.893.893,0,1,1-1.426.653,1.937,1.937,0,0,1-.19-1.914,1.383,1.383,0,0,1,.344.061l-.354-.326h-.025A.174.174,0,0,0,335.235,373.97Zm.217,6.94a1.951,1.951,0,0,1,1.572-2.717A1.951,1.951,0,0,1,335.452,380.91Z"/><path class="a" d="M340.3,378.584a2.859,2.859,0,0,0,.43-.162c.024-.012.045-.027.069-.04l-.234-.24a2.106,2.106,0,0,1-.549.154Z"/><path class="a" d="M338.721,377a1.718,1.718,0,0,1,.5-.207l-.308-.305a1.734,1.734,0,0,0-.469.241Z"/><path class="a" d="M335.8,374.19a2.087,2.087,0,0,1,1.272,1.2l.506.488c0-.007,0-.013,0-.02a2.163,2.163,0,0,0-.466-1.123c-.191-.182-.378-.358-.556-.525a1.943,1.943,0,0,0-1.109-.346Z"/><path class="a" d="M337.3,387.553a.56.56,0,0,1,.493-.282l.076.1a2.191,2.191,0,0,0,.821.738,2.24,2.24,0,0,0,1.762.079,1.983,1.983,0,0,0,1.126-.919.162.162,0,0,0,0-.2,4.53,4.53,0,0,0-.364-.459,2.131,2.131,0,0,0-1.35-.587,2.021,2.021,0,0,0-1.707.6,3.987,3.987,0,0,0-.312.383.131.131,0,0,1-.144.058.564.564,0,0,1-.394-.265.117.117,0,0,1,0-.035l.057-.127a2.132,2.132,0,0,0,.216-.912,2.249,2.249,0,0,0-1.051-1.881,2.007,2.007,0,0,0-1-.339.308.308,0,0,0-.352.2,2.063,2.063,0,0,0-.153,1.447,2.123,2.123,0,0,0,1.856,1.707l.258.031a.611.611,0,0,1,.049.427c-.047.14-.04.141-.187.153a2.195,2.195,0,0,0-1.049.341,2.079,2.079,0,0,0-.592.594h.477a1.711,1.711,0,0,1,1.188-.562,2.012,2.012,0,0,1,.164.562h.385a2.519,2.519,0,0,0-.2-.679C337.353,387.668,337.326,387.608,337.3,387.553Zm1.793-1.081a2.086,2.086,0,0,1,1.83.285,1.446,1.446,0,0,1,.4.412,1.953,1.953,0,0,1-3.15,0A1.718,1.718,0,0,1,339.1,386.472Zm-2.061.028a1.947,1.947,0,0,1-1.574-2.73c.1.021.214.033.32.065a2.032,2.032,0,0,1,1.26,1.133A1.77,1.77,0,0,1,337.035,386.5Z"/><path class="a" d="M335.364,388.408a2.38,2.38,0,0,0-.243.493h.383a2.042,2.042,0,0,1,.337-.493Z"/><path class="a" d="M337.578,388.408h-.385a1.7,1.7,0,0,1,0,.493h.383A1.7,1.7,0,0,0,337.578,388.408Z"/><path class="a" d="M347.086,387.792a1.79,1.79,0,0,1-.83.174,1.936,1.936,0,0,1-1.614-.782,2.006,2.006,0,0,1,2.156-.733c-.05-.139-.106-.276-.167-.413a2.368,2.368,0,0,0-1.4.242,1.924,1.924,0,0,0-.832.786.188.188,0,0,0,0,.214,1.964,1.964,0,0,0,.376.47,2.29,2.29,0,0,0,1.975.541,1.842,1.842,0,0,0,.349-.094C347.1,388.063,347.1,387.928,347.086,387.792Z"/><path class="a" d="M347.086,387.792c.01.136.014.271.011.4a1.866,1.866,0,0,0,.5-.278c-.006-.153-.02-.306-.041-.46A1.765,1.765,0,0,1,347.086,387.792Z"/><path class="a" d="M346.8,386.451a1.727,1.727,0,0,1,.618.315q-.073-.276-.173-.546a2.272,2.272,0,0,0-.612-.182C346.692,386.175,346.748,386.312,346.8,386.451Z"/><path class="a" d="M323.628,388.223a2.01,2.01,0,0,0,1.218-.943.17.17,0,0,0,0-.212,3.551,3.551,0,0,0-.365-.457,2.259,2.259,0,0,0-2.045-.542,1.735,1.735,0,0,0-.266.074c-.074.172-.142.345-.2.52a1.734,1.734,0,0,1,1-.28,1.955,1.955,0,0,1,1.632.779,1.993,1.993,0,0,1-2.835.371c-.02.148-.035.3-.041.442a1.889,1.889,0,0,0,.24.141A2.226,2.226,0,0,0,323.628,388.223Z"/><path class="a" d="M321.728,387.975c.006-.146.021-.294.041-.442a1.775,1.775,0,0,1-.319-.365,1.975,1.975,0,0,1,.521-.505c.056-.175.124-.348.2-.52a1.908,1.908,0,0,0-.688.431,5.683,5.683,0,0,0-.21.968A2.206,2.206,0,0,0,321.728,387.975Z"/><path class="a" d="M332.949,387.637a2.2,2.2,0,0,0-.737-.164.143.143,0,0,1-.15-.12.577.577,0,0,1,.04-.453.178.178,0,0,1,.023-.012l.123-.012a2.14,2.14,0,0,0,1.173-.439,2.313,2.313,0,0,0,.851-1.629,1.955,1.955,0,0,0-.264-1.191.174.174,0,0,0-.185-.105,3.009,3.009,0,0,0-.415.046,2.255,2.255,0,0,0-1.695,1.694,1.974,1.974,0,0,0,.142,1.344l.087.2a.549.549,0,0,1-.482.28l-.021-.011-.091-.125a2.157,2.157,0,0,0-.793-.7,2.243,2.243,0,0,0-1.8-.068,1.994,1.994,0,0,0-1.07.874.2.2,0,0,0,0,.253,3.9,3.9,0,0,0,.37.453,2.261,2.261,0,0,0,1.974.541,2.023,2.023,0,0,0,1.313-.861c.039-.053.076-.108.114-.159a.564.564,0,0,1,.495.286c-.031.066-.061.132-.089.2a2.388,2.388,0,0,0-.181.654h.378a2.077,2.077,0,0,1,.16-.559,1.673,1.673,0,0,1,1.192.559h.472A1.953,1.953,0,0,0,332.949,387.637Zm-5.034-.46a1.953,1.953,0,0,1,3.141-.008A1.953,1.953,0,0,1,327.915,387.177Zm5.877-3.393a1.946,1.946,0,0,1-1.57,2.715A1.946,1.946,0,0,1,333.792,383.784Z"/><path class="a" d="M332.051,388.408h-.378a1.66,1.66,0,0,0-.006.417c0,.026.01.05.014.076h.371c-.008-.052-.014-.1-.018-.158A1.778,1.778,0,0,1,332.051,388.408Z"/><path class="a" d="M333.4,388.408a2.068,2.068,0,0,1,.336.493h.384a2.645,2.645,0,0,0-.248-.493Z"/><path class="a" d="M343.633,388.408a.337.337,0,0,0-.053.074,2.233,2.233,0,0,0-.172.419h.3a2.2,2.2,0,0,1,.094-.285.873.873,0,0,1,.377.058,1.9,1.9,0,0,1,.471.227h.539a2.025,2.025,0,0,0-.892-.493Z"/><path class="a" d="M327.567,388.408H326.9a.328.328,0,0,0-.057.078,2.288,2.288,0,0,0-.169.415h.3a1.411,1.411,0,0,1,.109-.293,1.5,1.5,0,0,1,.733.229c.033.02.064.043.1.064h.542A2.028,2.028,0,0,0,327.567,388.408Z"/><path class="a" d="M325.615,388.408h-.646a2.165,2.165,0,0,0-.919.493h.542a1.878,1.878,0,0,1,.822-.3,1.239,1.239,0,0,1,.121.3h.3a2.154,2.154,0,0,0-.177-.43A.382.382,0,0,0,325.615,388.408Z"/><path class="a" d="M342.346,388.408H341.7a2.172,2.172,0,0,0-.921.493h.548a1.575,1.575,0,0,1,.829-.288,1.388,1.388,0,0,1,.111.288h.3a2.04,2.04,0,0,0-.192-.454A.227.227,0,0,0,342.346,388.408Z"/><path class="a" d="M340.106,380.325a1.992,1.992,0,0,0,.115,1.45c.029.07.06.139.087.2a.566.566,0,0,1-.485.279l-.016-.009-.1-.137a2.062,2.062,0,0,0-.783-.689,2.28,2.28,0,0,0-2.194.114,1.735,1.735,0,0,0-.614.581c-.17.268-.17.2.005.473a1.715,1.715,0,0,0,.294.337,2.274,2.274,0,0,0,2.006.529,2.014,2.014,0,0,0,1.28-.857c.04-.053.078-.107.112-.154a.563.563,0,0,1,.5.282c-.021.046-.043.1-.066.148a2.259,2.259,0,0,0-.219.912,2.173,2.173,0,0,0,.647,1.545,2.092,2.092,0,0,0,1.418.679.294.294,0,0,0,.33-.182,2.053,2.053,0,0,0,.173-1.416,2.135,2.135,0,0,0-1.879-1.757c-.081-.01-.162-.017-.25-.026a.87.87,0,0,1-.062-.243.692.692,0,0,1,.071-.294c.02-.036.121-.034.186-.041a2.088,2.088,0,0,0,1.139-.442,2.287,2.287,0,0,0,.63-.816l-.269-.286a1.8,1.8,0,0,1-1.578,1.173,1.754,1.754,0,0,1,.081-1.707,2.352,2.352,0,0,1,.451-.56l-.236-.243A2.433,2.433,0,0,0,340.106,380.325Zm-1.922,2.793a2.056,2.056,0,0,1-1.655-.482,1.83,1.83,0,0,1-.151-.154c-.035-.038-.064-.081-.1-.134.055-.068.1-.138.164-.2a1.92,1.92,0,0,1,1.127-.564,2.208,2.208,0,0,1,.739.011,1.8,1.8,0,0,1,1.13.753A1.775,1.775,0,0,1,338.184,383.118Zm2.393-.1a1.945,1.945,0,0,1,1.581,2.715.735.735,0,0,1-.326-.052,2.042,2.042,0,0,1-1.382-1.464A1.686,1.686,0,0,1,340.577,383.02Z"/><path class="a" d="M342.426,380.791a2.385,2.385,0,0,0,.17-.541c-.1-.1-.192-.2-.288-.3a2.207,2.207,0,0,1-.151.56Z"/><path class="a" d="M341.111,379.411a1.82,1.82,0,0,1,.42-.28l-.222-.229a2.156,2.156,0,0,0-.434.266Z"/><path class="a" d="M324.354,385.675a2.006,2.006,0,0,0,1.065.334.235.235,0,0,0,.244-.142,2.015,2.015,0,0,0,.2-1.456,2.173,2.173,0,0,0-1.295-1.605l-.254.3a1.68,1.68,0,0,1,.94.75,1.968,1.968,0,0,1,.186,1.887,1.565,1.565,0,0,1-.745-.233,2.109,2.109,0,0,1-.988-1.348,1.5,1.5,0,0,1-.039-.271q-.162.2-.311.392A2.318,2.318,0,0,0,324.354,385.675Z"/><path class="a" d="M323.3,384.014a2.547,2.547,0,0,0,.05.268q.148-.192.311-.392a1.9,1.9,0,0,1,.186-.882,2.22,2.22,0,0,1,.46.1l.254-.3a2.309,2.309,0,0,0-.528-.142c-.256.3-.5.6-.724.876A1.708,1.708,0,0,0,323.3,384.014Z"/><path class="a" d="M325.711,380.753q-.479.531-.928,1.044a1.706,1.706,0,0,0,.281-.189A2.268,2.268,0,0,0,325.711,380.753Z"/><path class="a" d="M343.337,384.727a1.956,1.956,0,0,0,.257,1.161.2.2,0,0,0,.21.119,3.015,3.015,0,0,0,.369-.041,2.191,2.191,0,0,0,1.59-1.333c-.084-.11-.17-.222-.262-.338a1.97,1.97,0,0,1-1.685,1.434,2,2,0,0,1,.812-2.491c-.082-.1-.165-.193-.25-.29a1.819,1.819,0,0,0-.2.143A2.318,2.318,0,0,0,343.337,384.727Z"/><path class="a" d="M345.5,384.3c.092.116.178.228.262.338a3.166,3.166,0,0,0,.134-.37,1.5,1.5,0,0,0,.043-.2c-.121-.154-.246-.311-.38-.475A1.745,1.745,0,0,1,345.5,384.3Z"/><path class="a" d="M344.628,383.238a1.647,1.647,0,0,1,.488-.186c-.087-.1-.176-.207-.267-.313a1.923,1.923,0,0,0-.471.209C344.463,383.045,344.546,383.142,344.628,383.238Z"/><path class="a" d="M328.487,382.037c.1.013.193.021.281.03a.561.561,0,0,1,0,.563l-.153.013a2.064,2.064,0,0,0-1.375.633,2.344,2.344,0,0,0-.641,1.679,1.965,1.965,0,0,0,.268.944.179.179,0,0,0,.185.108,3.1,3.1,0,0,0,.4-.044,2.252,2.252,0,0,0,1.712-1.7,2,2,0,0,0-.159-1.388c-.025-.055-.049-.11-.07-.157a.546.546,0,0,1,.5-.276c.04.055.075.106.112.156a2.153,2.153,0,0,0,.787.684,2.265,2.265,0,0,0,1.806.059,1.909,1.909,0,0,0,.978-.752c.184-.274.182-.213,0-.484a1.661,1.661,0,0,0-.294-.338,2.282,2.282,0,0,0-2.111-.5,2,2,0,0,0-1.175.833c-.04.053-.078.108-.112.156a.566.566,0,0,1-.494-.288c.032-.069.062-.134.09-.2a2.078,2.078,0,0,0,.194-.855,2.252,2.252,0,0,0-1.061-1.891c-.036-.025-.073-.042-.11-.064-.074.078-.148.156-.221.235a2.144,2.144,0,0,1,.812.88,1.748,1.748,0,0,1,.063,1.523.36.36,0,0,1-.027.056.139.139,0,0,1-.02.022,1.842,1.842,0,0,1-1.689-1.559l-.277.3A2.107,2.107,0,0,0,328.487,382.037Zm2.66-.468a2.039,2.039,0,0,1,1.552.478c.1.087.183.192.27.284a1.951,1.951,0,0,1-3.151.009A1.757,1.757,0,0,1,331.147,381.569Zm-4.062,4.16a1.947,1.947,0,0,1,1.577-2.712A1.947,1.947,0,0,1,327.085,385.729Z"/><path class="a" d="M327.828,379.193c.073-.079.147-.157.221-.235a1.823,1.823,0,0,0-.493-.2l-.223.237.034.007A1.922,1.922,0,0,1,327.828,379.193Z"/><path class="a" d="M326.69,380.415l.277-.3a1.941,1.941,0,0,1-.022-.707q-.176.188-.348.375a2.043,2.043,0,0,0,.067.549C326.671,380.361,326.682,380.386,326.69,380.415Z"/><path class="a" d="M331.109,385.938l-.269-.09-.008.024.3.121a.649.649,0,0,0,.027-.523A.91.91,0,0,1,331.109,385.938Z"/><path class="a" d="M338.139,385.937a.943.943,0,0,1-.058-.48.766.766,0,0,0,.026.542l.3-.128-.008-.021Z"/><path class="a" d="M338.439,376.2l-.01-.023-.294.108a.964.964,0,0,1-.05-.484.743.743,0,0,0,.021.542Z"/><path class="a" d="M331.165,375.823c0,.092,0,.168,0,.243a.3.3,0,0,1-.068.221l-.279-.1-.01.023.332.144A.742.742,0,0,0,331.165,375.823Z"/><path class="a" d="M329.714,384.041c0-.347,0-.347.068-.451l.183.037a.356.356,0,0,0-.231-.091A.708.708,0,0,0,329.714,384.041Z"/><path class="a" d="M339.522,380.636a.9.9,0,0,1-.048.48l-.231-.074-.014.028.286.1A.816.816,0,0,0,339.522,380.636Z"/><path class="a" d="M339.294,383.6l.008.022.177-.037a.951.951,0,0,1,.044.473.738.738,0,0,0-.016-.536Z"/><path class="a" d="M329.768,381.115a.947.947,0,0,1-.056-.438.712.712,0,0,0,.025.5l.28-.109-.009-.026Z"/><path class="a" d="M338.08,388.866a.854.854,0,0,1,.056-.451l.18.041.007-.027-.067-.021h-.171A.726.726,0,0,0,338.08,388.866Z"/><path class="a" d="M330.923,388.433l.006.022.184-.041a1.057,1.057,0,0,1,.048.485.769.769,0,0,0-.006-.491h-.165Z"/><path class="a" d="M335.688,377.756a.632.632,0,0,0,.354-.246l-.2-.168-.032.029c.059.045.117.091.187.147-.065.057-.107.1-.155.137S335.739,377.722,335.688,377.756Z"/><path class="a" d="M333.255,377.495l.167-.136-.015-.017-.207.17a.7.7,0,0,0,.354.25A.935.935,0,0,1,333.255,377.495Z"/><path class="a" d="M338.135,378.765l.15.025.006-.021-.188-.066a.76.76,0,0,0-.019.539A.888.888,0,0,1,338.135,378.765Z"/><path class="a" d="M330.955,378.77l.007.021.149-.027a.969.969,0,0,1,.054.461.74.74,0,0,0-.025-.523Z"/><path class="a" d="M321.9,413.164a2,2,0,0,0,.753.656,2.172,2.172,0,0,0,1.958-.041,1.828,1.828,0,0,0,.8-.764.16.16,0,0,0,0-.178,1.983,1.983,0,0,0-.214-.3h-.4a1.419,1.419,0,0,1,.37.384,1.866,1.866,0,0,1-3,.006,1.607,1.607,0,0,1,.349-.39h-.5c-.04.047-.078.1-.116.147s-.074.1-.109.152c-.021,0-.04-.006-.061-.008,0,.064.005.128.01.193.018,0,.034-.006.053-.006C321.829,413.068,321.863,413.117,321.9,413.164Z"/><path class="a" d="M321.4,413.466l-.079-.182a.533.533,0,0,1,.422-.262c-.005-.065-.007-.129-.01-.193a.534.534,0,0,1-.413-.266l.03-.066c-.038-.006-.075-.014-.111-.023a5.394,5.394,0,0,0,.342,2.093A1.985,1.985,0,0,0,321.4,413.466Zm-.122-.813a1.17,1.17,0,0,0,.2.182,1.081,1.081,0,0,0,.251.079l.005.033a.539.539,0,0,0-.457.285c-.02-.134.053-.213.045-.3S321.276,412.755,321.274,412.653Z"/><path class="a" d="M321.407,412.361a2.565,2.565,0,0,0,.11-.331,1.657,1.657,0,0,1-.233-.048,4.693,4.693,0,0,0-.049.492c.036.009.073.017.111.023C321.366,412.452,321.388,412.407,321.407,412.361Z"/><path class="a" d="M322.015,412.538h.5a1.948,1.948,0,0,1,2.282,0h.4a1.465,1.465,0,0,0-.153-.163,2.317,2.317,0,0,0-.49-.33H322.61A2.018,2.018,0,0,0,322.015,412.538Z"/><path class="a" d="M344.609,414.363a1.929,1.929,0,0,0-.958-.325.3.3,0,0,0-.337.189,1.977,1.977,0,0,0-.146,1.386,2.03,2.03,0,0,0,1.626,1.6c.3-.3.568-.6.812-.894,0-.052.01-.1.009-.158A2.155,2.155,0,0,0,344.609,414.363Zm-1.028-.076a2.984,2.984,0,0,1,.307.062,1.943,1.943,0,0,1,1.206,1.085,1.69,1.69,0,0,1-.006,1.466A1.864,1.864,0,0,1,343.581,414.287Z"/><path class="a" d="M343.216,419.313c.58-.48,1.131-.967,1.63-1.453a2.008,2.008,0,0,0-.791.3A2.072,2.072,0,0,0,343.216,419.313Z"/><path class="a" d="M345.354,417.159c.017-.041.036-.081.054-.122a2.172,2.172,0,0,0,.2-.715c-.244.294-.515.593-.812.894.05.01.1.024.151.03l.246.03a1.106,1.106,0,0,1,.056.181l.064-.067c-.01-.035-.021-.07-.03-.105l.028-.026a.7.7,0,0,0,.059.072l.05-.052a.746.746,0,0,1-.068-.087A.1.1,0,0,1,345.354,417.159Z"/><path class="a" d="M328.984,420.4a2,2,0,0,0,.522-2.036c-.048-.155-.117-.3-.175-.456a.5.5,0,0,1,.469-.265l.084.115a2.1,2.1,0,0,0,.779.692,2.135,2.135,0,0,0,1.589.1,1.922,1.922,0,0,0,1.166-.9.164.164,0,0,0,0-.2,3.4,3.4,0,0,0-.35-.437,2.16,2.16,0,0,0-1.958-.519,1.927,1.927,0,0,0-1.2.81c-.038.051-.074.1-.11.153a.527.527,0,0,1-.469-.263.308.308,0,0,1,.006-.035c.016-.037.032-.073.049-.108a2.168,2.168,0,0,0,.212-.873,2.082,2.082,0,0,0-.616-1.481,1.933,1.933,0,0,0-1.327-.646c-.281-.019-.242-.034-.363.2a1.867,1.867,0,0,0-.14,1.371,2.02,2.02,0,0,0,1.62,1.6c.13.026.263.037.4.056a.572.572,0,0,1,.039.442.144.144,0,0,1-.147.112,1.98,1.98,0,0,0-1.786,1.262,2.259,2.259,0,0,0-.186.736l.306.229a1.843,1.843,0,0,1,1.666-1.87,1.676,1.676,0,0,1-.068,1.622,2,2,0,0,1-.827.811l.276.2A2.031,2.031,0,0,0,328.984,420.4Zm2.64-3.61a1.9,1.9,0,1,1-1.457.752A1.69,1.69,0,0,1,331.624,416.788Zm-2.52.028q-.011.027-.024.054a.437.437,0,0,1-.026.04,1.671,1.671,0,0,1-1.289-.745,1.916,1.916,0,0,1-.219-1.882c.119.024.226.037.328.068a1.915,1.915,0,0,1,1.138.955A1.677,1.677,0,0,1,329.1,416.816Z"/><path class="a" d="M328.169,420.622a1.867,1.867,0,0,1-.593.178l.3.217a1.925,1.925,0,0,0,.568-.2Z"/><path class="a" d="M327.092,419.83a1.907,1.907,0,0,0,.068.665c.127.1.255.188.384.281a1.6,1.6,0,0,1-.146-.717Z"/><path class="a" d="M324.706,417.866c.487.445,1.017.892,1.572,1.333A1.972,1.972,0,0,0,324.706,417.866Z"/><path class="a" d="M324.479,417.261a2,2,0,0,0,.991-.324,2.168,2.168,0,0,0,.945-2.064,1.723,1.723,0,0,0-.246-.739.159.159,0,0,0-.167-.1,3.05,3.05,0,0,0-.4.043,2.157,2.157,0,0,0-1.629,1.616,1.89,1.89,0,0,0,.137,1.3l.079.183a.787.787,0,0,1-.09.112l.054.053c.025-.025.049-.051.075-.075l.025.009c-.01.042-.025.085-.038.127l.066.065a.835.835,0,0,1,.07-.2Zm1.485-2.962a1.863,1.863,0,0,1-1.5,2.6A1.863,1.863,0,0,1,325.964,414.3Z"/><path class="a" d="M326.278,419.2c-.555-.441-1.085-.888-1.572-1.333-.058-.01-.112-.024-.172-.03-.209-.023-.209-.021-.25-.228a.376.376,0,0,1,0-.134l-.066-.065a.513.513,0,0,0-.024.138c0,.088.04.177.043.277a1.168,1.168,0,0,0-.2-.184c-.078-.045-.174-.056-.267-.105a1.139,1.139,0,0,0,.254-.078.628.628,0,0,0,.128-.109l-.054-.053a.5.5,0,0,1-.384.154l-.107-.148a2,2,0,0,0-.753-.655c-.016-.008-.032-.013-.048-.02.279.333.6.673.943,1.016a.535.535,0,0,1,.434.259.147.147,0,0,1,0,.031l-.039.087.272.251c.01-.025.023-.049.037-.08a1.782,1.782,0,0,1,1.621,1.475l.357.279a1.944,1.944,0,0,0-.064-.467A2.584,2.584,0,0,0,326.278,419.2Z"/><path class="a" d="M341.176,417.989a2.093,2.093,0,0,0-.706-.157.138.138,0,0,1-.143-.115.553.553,0,0,1,.038-.434l.022-.011.118-.012a2.053,2.053,0,0,0,1.123-.42,2.213,2.213,0,0,0,.815-1.56,1.872,1.872,0,0,0-.253-1.14.166.166,0,0,0-.177-.1,3.253,3.253,0,0,0-.4.044,2.16,2.16,0,0,0-1.623,1.622,1.9,1.9,0,0,0,.136,1.288c.027.063.056.126.083.189a.524.524,0,0,1-.461.268l-.02-.011c-.03-.04-.059-.079-.088-.12a2.06,2.06,0,0,0-.759-.671,2.149,2.149,0,0,0-1.728-.064,1.907,1.907,0,0,0-1.024.836.188.188,0,0,0,0,.242,3.767,3.767,0,0,0,.354.435,2.168,2.168,0,0,0,1.89.517,1.934,1.934,0,0,0,1.257-.824c.038-.051.074-.1.109-.152a.54.54,0,0,1,.474.273c-.029.064-.058.126-.085.19a1.961,1.961,0,0,0-.179,1.025,2.157,2.157,0,0,0,.811,1.458l.259-.19a1.812,1.812,0,0,1-.178-.173,1.913,1.913,0,0,1-.54-1.174,1.833,1.833,0,0,1,.168-.855,1.766,1.766,0,0,1,1.61,1.4l.28-.222c-.013-.043-.025-.085-.041-.128A2,2,0,0,0,341.176,417.989Zm-4.819-.44a1.868,1.868,0,0,1,3.007-.008A1.868,1.868,0,0,1,336.357,417.549Zm5.626-3.249a1.863,1.863,0,0,1-1.5,2.6A1.863,1.863,0,0,1,341.983,414.3Z"/><path class="a" d="M342.079,419.593a1.978,1.978,0,0,1,.061.578l.31-.241a2.054,2.054,0,0,0-.091-.559Z"/><path class="a" d="M340.76,420.584a2.674,2.674,0,0,0,.307.217,1.507,1.507,0,0,0,.139.07c.089-.065.179-.131.268-.2a1.7,1.7,0,0,1-.455-.279Z"/><path class="a" d="M339.092,421.117a1.926,1.926,0,0,0-1.171.8c-.039.051-.075.1-.113.155a.527.527,0,0,1-.472-.27c.017-.039.032-.08.051-.12a2.159,2.159,0,0,0,.219-.87,2.051,2.051,0,0,0-.582-1.464,1.977,1.977,0,0,0-1.444-.689.234.234,0,0,0-.246.139,1.938,1.938,0,0,0-.175,1.437,2.03,2.03,0,0,0,1.808,1.636l.21.026a.535.535,0,0,1,0,.532l-.224.026a1.955,1.955,0,0,0-1.033.411,2.171,2.171,0,0,0-.782,1.354c.125-.071.259-.148.4-.233a1.758,1.758,0,0,1,1.535-1.189c.031.07.057.14.08.21l.306-.192a2.13,2.13,0,0,0-.088-.2.14.14,0,0,1,.029-.182.535.535,0,0,1,.4-.181l.02.014c.03.039.058.08.087.12s.051.065.077.1l.3-.194a1.518,1.518,0,0,1-.1-.131,1.687,1.687,0,0,1,1.369-.746h.038q.223-.153.447-.311A2.459,2.459,0,0,0,339.092,421.117Zm-2.014.4a1.861,1.861,0,0,1-1.514-2.6,1.429,1.429,0,0,1,.7.219,2.018,2.018,0,0,1,.951,1.3A1.663,1.663,0,0,1,337.078,421.52Z"/><path class="a" d="M339.584,421.415a2.238,2.238,0,0,1,.719.1c.1-.072.2-.143.307-.216a2.035,2.035,0,0,0-.579-.2Q339.807,421.262,339.584,421.415Z"/><path class="a" d="M338.279,422.291l-.3.194a2.249,2.249,0,0,0,.351.359l.322-.21A1.633,1.633,0,0,1,338.279,422.291Z"/><path class="a" d="M337.154,423.011a1.794,1.794,0,0,1,.094.52l.339-.212a2.171,2.171,0,0,0-.127-.5Z"/><path class="a" d="M335.135,424.223a2.554,2.554,0,0,0-.035.3,1.759,1.759,0,0,0,.006.282l.3-.169a2.067,2.067,0,0,1,.133-.641C335.394,424.075,335.26,424.152,335.135,424.223Z"/><path class="a" d="M332.689,422.472c-.111-.02-.224-.029-.328-.042a.527.527,0,0,1,0-.527l.022-.007.117-.013a2.033,2.033,0,0,0,1.11-.412,2.214,2.214,0,0,0,.828-1.644,1.868,1.868,0,0,0-.243-1.04.191.191,0,0,0-.21-.123c-.131.018-.268.016-.4.047a2.157,2.157,0,0,0-1.543,1.409,1.914,1.914,0,0,0,.069,1.486c.028.068.06.134.089.2a.547.547,0,0,1-.341.254c-.126.025-.125.031-.2-.082a2.042,2.042,0,0,0-.772-.7,2.137,2.137,0,0,0-1.828-.031l.327.224a2.137,2.137,0,0,1,.325-.052,1.78,1.78,0,0,1,1.021.179,1.913,1.913,0,0,1,.633.568,2.215,2.215,0,0,1-.358.376l.316.2a2.566,2.566,0,0,0,.312-.358l.1-.133a.542.542,0,0,1,.472.276l-.071.156a2.417,2.417,0,0,0-.157.469l.332.2a1.715,1.715,0,0,1,.164-.56,1.7,1.7,0,0,1,1.326.791,2.145,2.145,0,0,1,.313.825c.131.072.244.132.334.179a1.945,1.945,0,0,0-.066-.5A2.021,2.021,0,0,0,332.689,422.472Zm-.165-2.553a1.89,1.89,0,1,1-.059,1.61A1.678,1.678,0,0,1,332.524,419.919Z"/><path class="a" d="M329.059,421.248c-.052.022-.1.042-.157.068a1.76,1.76,0,0,0-.315.2l.256.177a1.8,1.8,0,0,1,.543-.223Z"/><path class="a" d="M331.007,422.543a1.61,1.61,0,0,1-.479.274l.367.236a1.88,1.88,0,0,0,.428-.309Z"/><path class="a" d="M334.444,424.593c-.09-.047-.2-.107-.334-.179a1.815,1.815,0,0,1,.005.56c.106.057.194.1.258.133A1.832,1.832,0,0,0,334.444,424.593Z"/><path class="a" d="M332.307,423.358l-.332-.2a1.7,1.7,0,0,0-.043.391c0,.056.007.109.012.163.136.084.269.165.4.242A1.671,1.671,0,0,1,332.307,423.358Z"/><path class="a" d="M344.6,413.2a1.556,1.556,0,0,1-.145-.148c-.033-.036-.061-.077-.1-.128.053-.065.1-.132.157-.191a1.788,1.788,0,0,1,.224-.2h-.412a1.58,1.58,0,0,0-.119.163c-.164.256-.163.2,0,.453a1.593,1.593,0,0,0,.28.322,2.177,2.177,0,0,0,1.921.507,1.714,1.714,0,0,0,.537-.19,4.942,4.942,0,0,0,.1-.511,1.546,1.546,0,0,1-.863.38A1.968,1.968,0,0,1,344.6,413.2Z"/><path class="a" d="M347.158,412.538H347.1c0,.024,0,.049,0,.073a2.284,2.284,0,0,1,.285.315,2.318,2.318,0,0,1-.333.356,4.942,4.942,0,0,1-.1.511,2.1,2.1,0,0,0,.6-.52,5,5,0,0,0,.04-.644c-.032-.041-.063-.082-.1-.121A2.158,2.158,0,0,1,347.158,412.538Z"/><path class="a" d="M344.328,412.538h.412a1.892,1.892,0,0,1,.855-.344,2.13,2.13,0,0,1,.708.01,1.543,1.543,0,0,1,.714.334h.141a2.158,2.158,0,0,0,.34-.03,1.84,1.84,0,0,0-.584-.463H345c-.066.031-.133.063-.2.1A1.65,1.65,0,0,0,344.328,412.538Z"/><path class="a" d="M328.122,413.041a3.553,3.553,0,0,0,.344.424,2.166,2.166,0,0,0,1.93.519,1.935,1.935,0,0,0,1.227-.821c.037-.051.073-.1.107-.148a.534.534,0,0,1,.473.272c-.029.068-.059.13-.086.194a1.983,1.983,0,0,0-.175,1.04,2.2,2.2,0,0,0,1.006,1.589,1.914,1.914,0,0,0,1.019.32.224.224,0,0,0,.234-.136,1.929,1.929,0,0,0,.188-1.393,2.042,2.042,0,0,0-1.8-1.684c-.077-.009-.155-.016-.24-.024a.861.861,0,0,1-.059-.232.672.672,0,0,1,.067-.281c.019-.036.116-.034.178-.041a2.512,2.512,0,0,0,.477-.1h-.823l.012.029a.545.545,0,0,1-.473.269l-.1-.14c-.04-.055-.082-.107-.125-.158H331a1.682,1.682,0,0,1,.349.38,1.863,1.863,0,0,1-3,.006,1.422,1.422,0,0,1,.373-.386h-.407a2.167,2.167,0,0,0-.2.274A.179.179,0,0,0,328.122,413.041Zm5.685,1.327a1.884,1.884,0,0,1,.177,1.807,1.5,1.5,0,0,1-.713-.223,2.025,2.025,0,0,1-.946-1.291.826.826,0,1,1,1.482-.293Z"/><path class="a" d="M332.191,412.538h.823a1.756,1.756,0,0,0,.614-.321c.066-.055.127-.113.185-.172h-.571a1.635,1.635,0,0,1-.769.242,1.614,1.614,0,0,1-.1-.242H332a2.663,2.663,0,0,0,.116.331C332.144,412.433,332.168,412.487,332.191,412.538Z"/><path class="a" d="M328.316,412.538h.407a1.946,1.946,0,0,1,2.281,0h.5a1.852,1.852,0,0,0-.608-.493h-1.918c-.066.031-.133.063-.2.1A1.686,1.686,0,0,0,328.316,412.538Z"/><path class="a" d="M336.9,412.627c.092.013.185.02.269.03a.536.536,0,0,1,0,.538l-.148.013a1.97,1.97,0,0,0-1.315.606,2.241,2.241,0,0,0-.614,1.607,1.871,1.871,0,0,0,.257.9.169.169,0,0,0,.177.1,2.862,2.862,0,0,0,.382-.042,2.158,2.158,0,0,0,1.639-1.623,1.917,1.917,0,0,0-.153-1.329c-.024-.053-.046-.106-.066-.151a.523.523,0,0,1,.478-.264c.037.052.071.1.106.149a2.052,2.052,0,0,0,.754.655,2.167,2.167,0,0,0,1.729.057,1.835,1.835,0,0,0,.936-.72c.176-.263.175-.2,0-.464a1.771,1.771,0,0,0-.12-.158h-.411c.043.032.085.063.126.1.1.083.175.184.259.272a1.868,1.868,0,0,1-3.017.008,2.1,2.1,0,0,1,.361-.379h-.507c-.041.049-.081.1-.119.151l-.107.149a.54.54,0,0,1-.472-.276l.011-.024h-.821A2.333,2.333,0,0,0,336.9,412.627Zm-1.342,3.535a1.864,1.864,0,0,1,1.51-2.6A1.864,1.864,0,0,1,335.562,416.162Z"/><path class="a" d="M336.525,412.538h.821c.025-.057.051-.112.075-.168a2.555,2.555,0,0,0,.114-.325h-.369c-.016.053-.034.107-.055.16a.334.334,0,0,1-.026.054.125.125,0,0,1-.019.021,1.525,1.525,0,0,1-.777-.235h-.566A1.9,1.9,0,0,0,336.525,412.538Z"/><path class="a" d="M338.033,412.538h.507a1.584,1.584,0,0,1,.911-.359,1.985,1.985,0,0,1,1.36.359h.411a1.675,1.675,0,0,0-.161-.165,2.3,2.3,0,0,0-.484-.328h-1.949A2.018,2.018,0,0,0,338.033,412.538Z"/><path class="a" d="M338.382,420.9l-.247.084a.858.858,0,0,1-.057-.425.65.65,0,0,0,.024.473A.534.534,0,0,0,338.382,420.9Z"/><path class="a" d="M331.4,420.985l-.25-.082-.007.024.29.116a.713.713,0,0,0,.017-.513A.842.842,0,0,1,331.4,420.985Z"/><path class="a" d="M323.446,415.9a.87.87,0,0,1-.053.46l-.223-.073.015.018a.556.556,0,0,0,.247.1A.738.738,0,0,0,323.446,415.9Z"/><path class="a" d="M339.415,416.362l-.257-.086-.009.023.287.116a.619.619,0,0,0,.026-.5A.873.873,0,0,1,339.415,416.362Z"/><path class="a" d="M330.071,415.929a.633.633,0,0,0,.021.476c.173-.036.2-.052.274-.125l-.244.084A.927.927,0,0,1,330.071,415.929Z"/><path class="a" d="M338.079,414.546c0-.332,0-.332.065-.432l.176.036a.341.341,0,0,0-.222-.087A.675.675,0,0,0,338.079,414.546Z"/><path class="a" d="M331.228,414.125l0,.02.18-.031a.921.921,0,0,1,.048.416.656.656,0,0,0-.025-.476Z"/><path class="a" d="M330.077,419.2a.839.839,0,0,1,.046-.462l.172.037.006-.024-.21-.07A.74.74,0,0,0,330.077,419.2Z"/><path class="a" d="M339.418,418.733a1,1,0,0,1,.046.465.717.717,0,0,0-.023-.523l-.205.076.006.021Z"/><rect class="a" width="0.621" height="76.008" transform="translate(333.961 284.822)"/></g></svg>