<svg xmlns="http://www.w3.org/2000/svg" width="399.762" height="128.644" viewBox="0 0 399.762 128.644"><defs><style>.a{fill:#285e84;}</style></defs><path class="a" d="M378.28,416.644H778.042v-2.212H775.7a6.705,6.705,0,0,0,.335-2.011,6.779,6.779,0,0,0-4.486-6.367c0-.033.007-.065.007-.1a2.313,2.313,0,0,0-1.531-2.173l-.324-.992a.546.546,0,0,0-.228-.819l-.2-3.126a.027.027,0,0,0-.028-.024c-.017,0-.033.011-.033.024l-.2,3.126a.564.564,0,0,0-.333.509.542.542,0,0,0,.108.312l-.327.99a2.314,2.314,0,0,0-1.533,2.173c0,.035.008.067.01.1a6.806,6.806,0,0,0-4.211,4.5v-7.889h.124a.534.534,0,0,0,.533-.537v-.3a.535.535,0,0,0-.533-.535h-.727a3.786,3.786,0,0,0,.051-.609,3.992,3.992,0,0,0-1.9-3.4,6.33,6.33,0,0,1-1.785-1.666.462.462,0,0,0,.144-.337.456.456,0,0,0-.275-.419l-.116-1.815h-.137l-.116,1.815a.46.46,0,0,0-.132.756,6.138,6.138,0,0,1-1.786,1.666,3.99,3.99,0,0,0-1.9,3.4,4.173,4.173,0,0,0,.048.609h-.7a.537.537,0,0,0-.536.535v.3a.536.536,0,0,0,.536.537h.1v7.523h-1.745a5.683,5.683,0,0,0,.7-2.688c0-3.269-2.977-6.128-7.439-7.727a23.652,23.652,0,0,1-7.307-4.078.988.988,0,0,0,.126-.471,1.041,1.041,0,0,0-.628-.954l-.266-4.121h-.308l-.265,4.121a1.043,1.043,0,0,0-.63.954,1.023,1.023,0,0,0,.125.471,23.325,23.325,0,0,1-7.307,4.078,14.832,14.832,0,0,0-4.923,2.823v-1.909h.306v-1.419h.528v-1.819h-.834V383.166h.306v-1.419h.528v-1.819h-.871a44.452,44.452,0,0,0-.34-4.681s-1.91-12.555-2.278-12.559-2.351,12.412-2.351,12.412a44,44,0,0,0-.375,4.828h-.878v1.819h.527v1.419h.307v14.281h-.834v.006a18.224,18.224,0,0,0-16.2-12.238v-.649a.426.426,0,0,0-.426-.426h-.331l-.272-6.833a4.868,4.868,0,0,0,2.424.208,4.933,4.933,0,0,0,3.218-2.063,4.939,4.939,0,0,1-6.673-6.995,4.927,4.927,0,0,0,.719,8.745l-.265,6.938h-.341a.413.413,0,0,0-.415.414v.676a18.236,18.236,0,0,0-16.018,12.538V383.086h.393v-1.82h.677v-2.333h-1.07V360.62h.393V358.8h.677v-2.332h-1.117a57.265,57.265,0,0,0-.437-6s-2.449-16.1-2.921-16.1-3.015,15.916-3.015,15.916a56.76,56.76,0,0,0-.48,6.191h-1.126V358.8h.675v1.819h.394v18.313h-1.069v2.333h.675v1.82h.394V390c-4.823-9.5-13.6-16.224-23.885-17.461v-1.406c0-.676-.333-1.226-.748-1.226H649.9l-1.02-10.366h-.452l-1.039,10.366h-1.434c-.412,0-.744.55-.744,1.226v1.406a30.425,30.425,0,0,0-20.163,11.636c-1.338-12.387-8.477-22.626-27.355-30.213-12.344-4.961-16.484-12.276-17.8-15.721,1.987-.222,3.484-1.19,3.484-2.352,0-1.091-1.324-2-3.126-2.293l-.289-7.82c.6-.182,1-.529,1-.931,0-.419-.439-.777-1.073-.953l-.284-7.658a16.2,16.2,0,0,0,18.017-8.791A16.256,16.256,0,0,1,572.433,288a16.245,16.245,0,0,0,6.472,28.076l-.465,7.753c-.782.137-1.356.536-1.356,1.015,0,.453.515.838,1.236.994l-.466,7.748c-1.83.283-3.18,1.2-3.18,2.3,0,1.2,1.606,2.188,3.7,2.364-1.321,3.449-5.466,10.753-17.8,15.709-20.094,8.076-26.89,19.155-27.543,32.634a30.827,30.827,0,0,0-21.91-14.057v-1.406c0-.676-.334-1.226-.748-1.226h-1.42l-1.02-10.366h-.453l-1.039,10.366h-1.433c-.412,0-.745.55-.745,1.226v1.406c-11.34,1.362-20.857,9.4-25.248,20.48v-9.932h.393v-1.82h.677v-2.333h-1.07V360.62h.393V358.8h.677v-2.332h-1.117a57.273,57.273,0,0,0-.437-6s-2.448-16.1-2.921-16.1-3.015,15.916-3.015,15.916a57.02,57.02,0,0,0-.481,6.191h-1.125V358.8h.676v1.819h.393v18.313h-1.069v2.333h.676v1.82h.393v12.528a18.22,18.22,0,0,0-15.442-10.4v-.649a.427.427,0,0,0-.427-.426h-.33l-.272-6.833a4.868,4.868,0,0,0,2.424.208,4.933,4.933,0,0,0,3.218-2.063,4.939,4.939,0,0,1-6.673-6.995,4.927,4.927,0,0,0,.719,8.745l-.265,6.938h-.341a.415.415,0,0,0-.415.414v.676a18.23,18.23,0,0,0-15.9,12.217h-.605V383.166h.306v-1.419h.528v-1.819h-.871a44.715,44.715,0,0,0-.341-4.681s-1.909-12.555-2.278-12.559-2.351,12.412-2.351,12.412a44.24,44.24,0,0,0-.375,4.828h-.878v1.819h.527v1.419h.307v14.281h-.834v1.819h.527v1.419h.307v1.681a15.188,15.188,0,0,0-4.665-2.6,23.313,23.313,0,0,1-7.307-4.078,1.015,1.015,0,0,0-.505-1.425l-.266-4.121h-.307l-.267,4.121a1.04,1.04,0,0,0-.627.954.987.987,0,0,0,.125.471,23.651,23.651,0,0,1-7.307,4.078c-4.462,1.6-7.439,4.458-7.439,7.727a5.672,5.672,0,0,0,.7,2.688H402.71v-7.523h.105a.536.536,0,0,0,.537-.537v-.3a.537.537,0,0,0-.537-.535h-.7a4.173,4.173,0,0,0,.048-.609,3.988,3.988,0,0,0-1.9-3.4,6.151,6.151,0,0,1-1.786-1.666.461.461,0,0,0-.131-.756l-.117-1.815h-.136l-.117,1.815a.46.46,0,0,0-.13.756,6.343,6.343,0,0,1-1.785,1.666,3.99,3.99,0,0,0-1.9,3.4,3.68,3.68,0,0,0,.052.609h-.727a.534.534,0,0,0-.533.535v.3a.533.533,0,0,0,.533.537h.123v7.889a6.8,6.8,0,0,0-4.211-4.5c0-.033.011-.065.011-.1a2.314,2.314,0,0,0-1.534-2.173l-.327-.99a.535.535,0,0,0,.108-.312.564.564,0,0,0-.333-.509l-.2-3.126c0-.013-.015-.024-.033-.024a.027.027,0,0,0-.027.024l-.2,3.126a.565.565,0,0,0-.33.509.553.553,0,0,0,.1.31l-.325.992a2.312,2.312,0,0,0-1.53,2.173c0,.035.007.067.007.1a6.655,6.655,0,0,0-4.152,8.378H378.28Zm382.383-10.55a1.232,1.232,0,1,1,1.475,0v4.162h-1.475Zm-4.367-.442a1.937,1.937,0,1,1,3.732,0v4.6H757.2v-.07h-.9Zm-2.1.442a1.232,1.232,0,1,1,1.474,0v4.092H754.2Zm-353.552,0a2.811,2.811,0,0,1,.738-2.22,2.814,2.814,0,0,1,.736,2.22v4.092h-1.474Zm-4.354-.442a1.937,1.937,0,1,1,3.732,0v4.534h-.9v.07h-2.829Zm-2.109.442a2.818,2.818,0,0,1,.735-2.22,2.807,2.807,0,0,1,.74,2.22v4.162h-1.475Z" transform="translate(-378.28 -288)"/></svg>